<svg width="700" height="700" viewBox="0 0 700 700" fill="none" xmlns="http://www.w3.org/2000/svg">
<g clip-path="url(#clip0_147_104)">
<rect x="250.5" y="250.5" width="199" height="199" stroke="#3C6E71"/>
<path d="M172.877 558.997L50.1667 681.695" stroke="#3C6E71" stroke-width="2" stroke-miterlimit="10"/>
<path d="M143.663 525L107.543 561.12" stroke="#3C6E71" stroke-width="2" stroke-miterlimit="10"/>
<path d="M175.525 636.02L110.588 700.957" stroke="#3C6E71" stroke-width="2" stroke-miterlimit="10"/>
<path d="M130.375 614.775L83.9067 661.255" stroke="#3C6E71" stroke-width="2" stroke-miterlimit="10"/>
<path d="M1.97167 3.94332C3.06059 3.94332 3.94333 3.06057 3.94333 1.97165C3.94333 0.88273 3.06059 0 1.97167 0C0.882744 0 0 0.88273 0 1.97165C0 3.06057 0.882744 3.94332 1.97167 3.94332Z" fill="#3C6E71"/>
<path d="M19.7051 3.94332C20.794 3.94332 21.6767 3.06057 21.6767 1.97165C21.6767 0.88273 20.794 0 19.7051 0C18.6161 0 17.7334 0.88273 17.7334 1.97165C17.7334 3.06057 18.6161 3.94332 19.7051 3.94332Z" fill="#3C6E71"/>
<path d="M37.4382 3.94332C38.5271 3.94332 39.4099 3.06057 39.4099 1.97165C39.4099 0.88273 38.5271 0 37.4382 0C36.3493 0 35.4666 0.88273 35.4666 1.97165C35.4666 3.06057 36.3493 3.94332 37.4382 3.94332Z" fill="#3C6E71"/>
<path d="M57.1433 1.97165C57.1433 3.05665 56.2566 3.94332 55.1716 3.94332C54.0866 3.94332 53.2 3.05665 53.2 1.97165C53.2 0.886652 54.0866 0 55.1716 0C56.2566 0 57.1433 0.886652 57.1433 1.97165Z" fill="#3C6E71"/>
<path d="M74.8767 1.97165C74.8767 3.05665 73.99 3.94332 72.905 3.94332C71.82 3.94332 70.9333 3.05665 70.9333 1.97165C70.9333 0.886652 71.82 0 72.905 0C73.99 0 74.8767 0.886652 74.8767 1.97165Z" fill="#3C6E71"/>
<path d="M90.6384 3.94332C91.7273 3.94332 92.6101 3.06057 92.6101 1.97165C92.6101 0.88273 91.7273 0 90.6384 0C89.5495 0 88.6667 0.88273 88.6667 1.97165C88.6667 3.06057 89.5495 3.94332 90.6384 3.94332Z" fill="#3C6E71"/>
<path d="M108.372 3.94332C109.46 3.94332 110.343 3.06057 110.343 1.97165C110.343 0.88273 109.46 0 108.372 0C107.283 0 106.4 0.88273 106.4 1.97165C106.4 3.06057 107.283 3.94332 108.372 3.94332Z" fill="#3C6E71"/>
<path d="M126.105 3.94332C127.194 3.94332 128.077 3.06057 128.077 1.97165C128.077 0.88273 127.194 0 126.105 0C125.016 0 124.133 0.88273 124.133 1.97165C124.133 3.06057 125.016 3.94332 126.105 3.94332Z" fill="#3C6E71"/>
<path d="M143.838 3.94332C144.927 3.94332 145.81 3.06057 145.81 1.97165C145.81 0.88273 144.927 0 143.838 0C142.749 0 141.867 0.88273 141.867 1.97165C141.867 3.06057 142.749 3.94332 143.838 3.94332Z" fill="#3C6E71"/>
<path d="M161.572 3.94332C162.661 3.94332 163.543 3.06057 163.543 1.97165C163.543 0.88273 162.661 0 161.572 0C160.483 0 159.6 0.88273 159.6 1.97165C159.6 3.06057 160.483 3.94332 161.572 3.94332Z" fill="#3C6E71"/>
<path d="M179.305 3.94332C180.394 3.94332 181.277 3.06057 181.277 1.97165C181.277 0.88273 180.394 0 179.305 0C178.216 0 177.333 0.88273 177.333 1.97165C177.333 3.06057 178.216 3.94332 179.305 3.94332Z" fill="#3C6E71"/>
<path d="M1.97167 19.7051C3.06059 19.7051 3.94333 18.8223 3.94333 17.7334C3.94333 16.6445 3.06059 15.7617 1.97167 15.7617C0.882744 15.7617 0 16.6445 0 17.7334C0 18.8223 0.882744 19.7051 1.97167 19.7051Z" fill="#3C6E71"/>
<path d="M19.7051 19.7051C20.794 19.7051 21.6767 18.8223 21.6767 17.7334C21.6767 16.6445 20.794 15.7617 19.7051 15.7617C18.6161 15.7617 17.7334 16.6445 17.7334 17.7334C17.7334 18.8223 18.6161 19.7051 19.7051 19.7051Z" fill="#3C6E71"/>
<path d="M37.4382 19.7051C38.5271 19.7051 39.4099 18.8223 39.4099 17.7334C39.4099 16.6445 38.5271 15.7617 37.4382 15.7617C36.3493 15.7617 35.4666 16.6445 35.4666 17.7334C35.4666 18.8223 36.3493 19.7051 37.4382 19.7051Z" fill="#3C6E71"/>
<path d="M57.1433 17.7334C57.1433 18.8184 56.2566 19.7051 55.1716 19.7051C54.0866 19.7051 53.2 18.8184 53.2 17.7334C53.2 16.6484 54.0866 15.7617 55.1716 15.7617C56.2566 15.7617 57.1433 16.6484 57.1433 17.7334Z" fill="#3C6E71"/>
<path d="M74.8767 17.7334C74.8767 18.8184 73.99 19.7051 72.905 19.7051C71.82 19.7051 70.9333 18.8184 70.9333 17.7334C70.9333 16.6484 71.82 15.7617 72.905 15.7617C73.99 15.7617 74.8767 16.6484 74.8767 17.7334Z" fill="#3C6E71"/>
<path d="M90.6384 19.7051C91.7273 19.7051 92.6101 18.8223 92.6101 17.7334C92.6101 16.6445 91.7273 15.7617 90.6384 15.7617C89.5495 15.7617 88.6667 16.6445 88.6667 17.7334C88.6667 18.8223 89.5495 19.7051 90.6384 19.7051Z" fill="#3C6E71"/>
<path d="M108.372 19.7051C109.46 19.7051 110.343 18.8223 110.343 17.7334C110.343 16.6445 109.46 15.7617 108.372 15.7617C107.283 15.7617 106.4 16.6445 106.4 17.7334C106.4 18.8223 107.283 19.7051 108.372 19.7051Z" fill="#3C6E71"/>
<path d="M126.105 19.7051C127.194 19.7051 128.077 18.8223 128.077 17.7334C128.077 16.6445 127.194 15.7617 126.105 15.7617C125.016 15.7617 124.133 16.6445 124.133 17.7334C124.133 18.8223 125.016 19.7051 126.105 19.7051Z" fill="#3C6E71"/>
<path d="M143.838 19.7051C144.927 19.7051 145.81 18.8223 145.81 17.7334C145.81 16.6445 144.927 15.7617 143.838 15.7617C142.749 15.7617 141.867 16.6445 141.867 17.7334C141.867 18.8223 142.749 19.7051 143.838 19.7051Z" fill="#3C6E71"/>
<path d="M161.572 19.7051C162.661 19.7051 163.543 18.8223 163.543 17.7334C163.543 16.6445 162.661 15.7617 161.572 15.7617C160.483 15.7617 159.6 16.6445 159.6 17.7334C159.6 18.8223 160.483 19.7051 161.572 19.7051Z" fill="#3C6E71"/>
<path d="M179.305 19.7051C180.394 19.7051 181.277 18.8223 181.277 17.7334C181.277 16.6445 180.394 15.7617 179.305 15.7617C178.216 15.7617 177.333 16.6445 177.333 17.7334C177.333 18.8223 178.216 19.7051 179.305 19.7051Z" fill="#3C6E71"/>
<path d="M1.97167 35.4667C3.06059 35.4667 3.94333 34.5839 3.94333 33.495C3.94333 32.4061 3.06059 31.5233 1.97167 31.5233C0.882744 31.5233 0 32.4061 0 33.495C0 34.5839 0.882744 35.4667 1.97167 35.4667Z" fill="#3C6E71"/>
<path d="M19.7051 35.4667C20.794 35.4667 21.6767 34.5839 21.6767 33.495C21.6767 32.4061 20.794 31.5233 19.7051 31.5233C18.6161 31.5233 17.7334 32.4061 17.7334 33.495C17.7334 34.5839 18.6161 35.4667 19.7051 35.4667Z" fill="#3C6E71"/>
<path d="M37.4382 35.4667C38.5271 35.4667 39.4099 34.5839 39.4099 33.495C39.4099 32.4061 38.5271 31.5233 37.4382 31.5233C36.3493 31.5233 35.4666 32.4061 35.4666 33.495C35.4666 34.5839 36.3493 35.4667 37.4382 35.4667Z" fill="#3C6E71"/>
<path d="M57.1433 33.495C57.1433 34.58 56.2566 35.4667 55.1716 35.4667C54.0866 35.4667 53.2 34.58 53.2 33.495C53.2 32.41 54.0866 31.5233 55.1716 31.5233C56.2566 31.5233 57.1433 32.41 57.1433 33.495Z" fill="#3C6E71"/>
<path d="M74.8767 33.495C74.8767 34.58 73.99 35.4667 72.905 35.4667C71.82 35.4667 70.9333 34.58 70.9333 33.495C70.9333 32.41 71.82 31.5233 72.905 31.5233C73.99 31.5233 74.8767 32.41 74.8767 33.495Z" fill="#3C6E71"/>
<path d="M90.6384 35.4667C91.7273 35.4667 92.6101 34.5839 92.6101 33.495C92.6101 32.4061 91.7273 31.5233 90.6384 31.5233C89.5495 31.5233 88.6667 32.4061 88.6667 33.495C88.6667 34.5839 89.5495 35.4667 90.6384 35.4667Z" fill="#3C6E71"/>
<path d="M108.372 35.4667C109.46 35.4667 110.343 34.5839 110.343 33.495C110.343 32.4061 109.46 31.5233 108.372 31.5233C107.283 31.5233 106.4 32.4061 106.4 33.495C106.4 34.5839 107.283 35.4667 108.372 35.4667Z" fill="#3C6E71"/>
<path d="M126.105 35.4667C127.194 35.4667 128.077 34.5839 128.077 33.495C128.077 32.4061 127.194 31.5233 126.105 31.5233C125.016 31.5233 124.133 32.4061 124.133 33.495C124.133 34.5839 125.016 35.4667 126.105 35.4667Z" fill="#3C6E71"/>
<path d="M143.838 35.4667C144.927 35.4667 145.81 34.5839 145.81 33.495C145.81 32.4061 144.927 31.5233 143.838 31.5233C142.749 31.5233 141.867 32.4061 141.867 33.495C141.867 34.5839 142.749 35.4667 143.838 35.4667Z" fill="#3C6E71"/>
<path d="M161.572 35.4667C162.661 35.4667 163.543 34.5839 163.543 33.495C163.543 32.4061 162.661 31.5233 161.572 31.5233C160.483 31.5233 159.6 32.4061 159.6 33.495C159.6 34.5839 160.483 35.4667 161.572 35.4667Z" fill="#3C6E71"/>
<path d="M179.305 35.4667C180.394 35.4667 181.277 34.5839 181.277 33.495C181.277 32.4061 180.394 31.5233 179.305 31.5233C178.216 31.5233 177.333 32.4061 177.333 33.495C177.333 34.5839 178.216 35.4667 179.305 35.4667Z" fill="#3C6E71"/>
<path d="M3.94333 49.2567C3.94333 50.3417 3.05667 51.2284 1.97167 51.2284C0.886665 51.2284 0 50.3417 0 49.2567C0 48.1717 0.886665 47.285 1.97167 47.285C3.05667 47.285 3.94333 48.1717 3.94333 49.2567Z" fill="#3C6E71"/>
<path d="M21.6767 49.2567C21.6767 50.3417 20.7901 51.2284 19.7051 51.2284C18.6201 51.2284 17.7334 50.3417 17.7334 49.2567C17.7334 48.1717 18.6201 47.285 19.7051 47.285C20.7901 47.285 21.6767 48.1717 21.6767 49.2567Z" fill="#3C6E71"/>
<path d="M39.4099 49.2567C39.4099 50.3417 38.5232 51.2284 37.4382 51.2284C36.3532 51.2284 35.4666 50.3417 35.4666 49.2567C35.4666 48.1717 36.3532 47.285 37.4382 47.285C38.5232 47.285 39.4099 48.1717 39.4099 49.2567Z" fill="#3C6E71"/>
<path d="M57.1433 49.2567C57.1433 50.3417 56.2566 51.2284 55.1716 51.2284C54.0866 51.2284 53.2 50.3417 53.2 49.2567C53.2 48.1717 54.0866 47.285 55.1716 47.285C56.2566 47.285 57.1433 48.1717 57.1433 49.2567Z" fill="#3C6E71"/>
<path d="M74.8767 49.2567C74.8767 50.3417 73.99 51.2284 72.905 51.2284C71.82 51.2284 70.9333 50.3417 70.9333 49.2567C70.9333 48.1717 71.82 47.285 72.905 47.285C73.99 47.285 74.8767 48.1717 74.8767 49.2567Z" fill="#3C6E71"/>
<path d="M92.6101 49.2567C92.6101 50.3417 91.7234 51.2284 90.6384 51.2284C89.5534 51.2284 88.6667 50.3417 88.6667 49.2567C88.6667 48.1717 89.5534 47.285 90.6384 47.285C91.7234 47.285 92.6101 48.1717 92.6101 49.2567Z" fill="#3C6E71"/>
<path d="M110.343 49.2567C110.343 50.3417 109.457 51.2284 108.372 51.2284C107.287 51.2284 106.4 50.3417 106.4 49.2567C106.4 48.1717 107.287 47.285 108.372 47.285C109.457 47.285 110.343 48.1717 110.343 49.2567Z" fill="#3C6E71"/>
<path d="M128.077 49.2567C128.077 50.3417 127.19 51.2284 126.105 51.2284C125.02 51.2284 124.133 50.3417 124.133 49.2567C124.133 48.1717 125.02 47.285 126.105 47.285C127.19 47.285 128.077 48.1717 128.077 49.2567Z" fill="#3C6E71"/>
<path d="M145.81 49.2567C145.81 50.3417 144.923 51.2284 143.838 51.2284C142.753 51.2284 141.867 50.3417 141.867 49.2567C141.867 48.1717 142.753 47.285 143.838 47.285C144.923 47.285 145.81 48.1717 145.81 49.2567Z" fill="#3C6E71"/>
<path d="M163.543 49.2567C163.543 50.3417 162.657 51.2284 161.572 51.2284C160.487 51.2284 159.6 50.3417 159.6 49.2567C159.6 48.1717 160.487 47.285 161.572 47.285C162.657 47.285 163.543 48.1717 163.543 49.2567Z" fill="#3C6E71"/>
<path d="M181.277 49.2567C181.277 50.3417 180.39 51.2284 179.305 51.2284C178.22 51.2284 177.333 50.3417 177.333 49.2567C177.333 48.1717 178.22 47.285 179.305 47.285C180.39 47.285 181.277 48.1717 181.277 49.2567Z" fill="#3C6E71"/>
<path d="M3.94333 65.0183C3.94333 66.1033 3.05667 66.99 1.97167 66.99C0.886665 66.99 0 66.1033 0 65.0183C0 63.9333 0.886665 63.0466 1.97167 63.0466C3.05667 63.0466 3.94333 63.9333 3.94333 65.0183Z" fill="#3C6E71"/>
<path d="M21.6767 65.0183C21.6767 66.1033 20.7901 66.99 19.7051 66.99C18.6201 66.99 17.7334 66.1033 17.7334 65.0183C17.7334 63.9333 18.6201 63.0466 19.7051 63.0466C20.7901 63.0466 21.6767 63.9333 21.6767 65.0183Z" fill="#3C6E71"/>
<path d="M39.4099 65.0183C39.4099 66.1033 38.5232 66.99 37.4382 66.99C36.3532 66.99 35.4666 66.1033 35.4666 65.0183C35.4666 63.9333 36.3532 63.0466 37.4382 63.0466C38.5232 63.0466 39.4099 63.9333 39.4099 65.0183Z" fill="#3C6E71"/>
<path d="M57.1433 65.0183C57.1433 66.1033 56.2566 66.99 55.1716 66.99C54.0866 66.99 53.2 66.1033 53.2 65.0183C53.2 63.9333 54.0866 63.0466 55.1716 63.0466C56.2566 63.0466 57.1433 63.9333 57.1433 65.0183Z" fill="#3C6E71"/>
<path d="M74.8767 65.0183C74.8767 66.1033 73.99 66.99 72.905 66.99C71.82 66.99 70.9333 66.1033 70.9333 65.0183C70.9333 63.9333 71.82 63.0466 72.905 63.0466C73.99 63.0466 74.8767 63.9333 74.8767 65.0183Z" fill="#3C6E71"/>
<path d="M92.6101 65.0183C92.6101 66.1033 91.7234 66.99 90.6384 66.99C89.5534 66.99 88.6667 66.1033 88.6667 65.0183C88.6667 63.9333 89.5534 63.0466 90.6384 63.0466C91.7234 63.0466 92.6101 63.9333 92.6101 65.0183Z" fill="#3C6E71"/>
<path d="M110.343 65.0183C110.343 66.1033 109.457 66.99 108.372 66.99C107.287 66.99 106.4 66.1033 106.4 65.0183C106.4 63.9333 107.287 63.0466 108.372 63.0466C109.457 63.0466 110.343 63.9333 110.343 65.0183Z" fill="#3C6E71"/>
<path d="M128.077 65.0183C128.077 66.1033 127.19 66.99 126.105 66.99C125.02 66.99 124.133 66.1033 124.133 65.0183C124.133 63.9333 125.02 63.0466 126.105 63.0466C127.19 63.0466 128.077 63.9333 128.077 65.0183Z" fill="#3C6E71"/>
<path d="M145.81 65.0183C145.81 66.1033 144.923 66.99 143.838 66.99C142.753 66.99 141.867 66.1033 141.867 65.0183C141.867 63.9333 142.753 63.0466 143.838 63.0466C144.923 63.0466 145.81 63.9333 145.81 65.0183Z" fill="#3C6E71"/>
<path d="M163.543 65.0183C163.543 66.1033 162.657 66.99 161.572 66.99C160.487 66.99 159.6 66.1033 159.6 65.0183C159.6 63.9333 160.487 63.0466 161.572 63.0466C162.657 63.0466 163.543 63.9333 163.543 65.0183Z" fill="#3C6E71"/>
<path d="M181.277 65.0183C181.277 66.1033 180.39 66.99 179.305 66.99C178.22 66.99 177.333 66.1033 177.333 65.0183C177.333 63.9333 178.22 63.0466 179.305 63.0466C180.39 63.0466 181.277 63.9333 181.277 65.0183Z" fill="#3C6E71"/>
<path d="M3.94333 80.78C3.94333 81.865 3.05667 82.7517 1.97167 82.7517C0.886665 82.7517 0 81.865 0 80.78C0 79.695 0.886665 78.8083 1.97167 78.8083C3.05667 78.8083 3.94333 79.695 3.94333 80.78Z" fill="#3C6E71"/>
<path d="M21.6767 80.78C21.6767 81.865 20.7901 82.7517 19.7051 82.7517C18.6201 82.7517 17.7334 81.865 17.7334 80.78C17.7334 79.695 18.6201 78.8083 19.7051 78.8083C20.7901 78.8083 21.6767 79.695 21.6767 80.78Z" fill="#3C6E71"/>
<path d="M39.4099 80.78C39.4099 81.865 38.5232 82.7517 37.4382 82.7517C36.3532 82.7517 35.4666 81.865 35.4666 80.78C35.4666 79.695 36.3532 78.8083 37.4382 78.8083C38.5232 78.8083 39.4099 79.695 39.4099 80.78Z" fill="#3C6E71"/>
<path d="M57.1433 80.78C57.1433 81.865 56.2566 82.7517 55.1716 82.7517C54.0866 82.7517 53.2 81.865 53.2 80.78C53.2 79.695 54.0866 78.8083 55.1716 78.8083C56.2566 78.8083 57.1433 79.695 57.1433 80.78Z" fill="#3C6E71"/>
<path d="M74.8767 80.78C74.8767 81.865 73.99 82.7517 72.905 82.7517C71.82 82.7517 70.9333 81.865 70.9333 80.78C70.9333 79.695 71.82 78.8083 72.905 78.8083C73.99 78.8083 74.8767 79.695 74.8767 80.78Z" fill="#3C6E71"/>
<path d="M92.6101 80.78C92.6101 81.865 91.7234 82.7517 90.6384 82.7517C89.5534 82.7517 88.6667 81.865 88.6667 80.78C88.6667 79.695 89.5534 78.8083 90.6384 78.8083C91.7234 78.8083 92.6101 79.695 92.6101 80.78Z" fill="#3C6E71"/>
<path d="M110.343 80.78C110.343 81.865 109.457 82.7517 108.372 82.7517C107.287 82.7517 106.4 81.865 106.4 80.78C106.4 79.695 107.287 78.8083 108.372 78.8083C109.457 78.8083 110.343 79.695 110.343 80.78Z" fill="#3C6E71"/>
<path d="M128.077 80.78C128.077 81.865 127.19 82.7517 126.105 82.7517C125.02 82.7517 124.133 81.865 124.133 80.78C124.133 79.695 125.02 78.8083 126.105 78.8083C127.19 78.8083 128.077 79.695 128.077 80.78Z" fill="#3C6E71"/>
<path d="M145.81 80.78C145.81 81.865 144.923 82.7517 143.838 82.7517C142.753 82.7517 141.867 81.865 141.867 80.78C141.867 79.695 142.753 78.8083 143.838 78.8083C144.923 78.8083 145.81 79.695 145.81 80.78Z" fill="#3C6E71"/>
<path d="M163.543 80.78C163.543 81.865 162.657 82.7517 161.572 82.7517C160.487 82.7517 159.6 81.865 159.6 80.78C159.6 79.695 160.487 78.8083 161.572 78.8083C162.657 78.8083 163.543 79.695 163.543 80.78Z" fill="#3C6E71"/>
<path d="M181.277 80.78C181.277 81.865 180.39 82.7517 179.305 82.7517C178.22 82.7517 177.333 81.865 177.333 80.78C177.333 79.695 178.22 78.8083 179.305 78.8083C180.39 78.8083 181.277 79.695 181.277 80.78Z" fill="#3C6E71"/>
<path d="M1.97167 98.5133C3.06059 98.5133 3.94333 97.6305 3.94333 96.5416C3.94333 95.4527 3.06059 94.5699 1.97167 94.5699C0.882744 94.5699 0 95.4527 0 96.5416C0 97.6305 0.882744 98.5133 1.97167 98.5133Z" fill="#3C6E71"/>
<path d="M19.7051 98.5133C20.794 98.5133 21.6767 97.6305 21.6767 96.5416C21.6767 95.4527 20.794 94.5699 19.7051 94.5699C18.6161 94.5699 17.7334 95.4527 17.7334 96.5416C17.7334 97.6305 18.6161 98.5133 19.7051 98.5133Z" fill="#3C6E71"/>
<path d="M37.4382 98.5133C38.5271 98.5133 39.4099 97.6305 39.4099 96.5416C39.4099 95.4527 38.5271 94.5699 37.4382 94.5699C36.3493 94.5699 35.4666 95.4527 35.4666 96.5416C35.4666 97.6305 36.3493 98.5133 37.4382 98.5133Z" fill="#3C6E71"/>
<path d="M57.1433 96.5416C57.1433 97.6266 56.2566 98.5133 55.1716 98.5133C54.0866 98.5133 53.2 97.6266 53.2 96.5416C53.2 95.4566 54.0866 94.5699 55.1716 94.5699C56.2566 94.5816 57.1433 95.4566 57.1433 96.5416Z" fill="#3C6E71"/>
<path d="M74.8767 96.5416C74.8767 97.6266 73.99 98.5133 72.905 98.5133C71.82 98.5133 70.9333 97.6266 70.9333 96.5416C70.9333 95.4566 71.82 94.5699 72.905 94.5699C73.99 94.5816 74.8767 95.4566 74.8767 96.5416Z" fill="#3C6E71"/>
<path d="M90.6384 98.5133C91.7273 98.5133 92.6101 97.6305 92.6101 96.5416C92.6101 95.4527 91.7273 94.5699 90.6384 94.5699C89.5495 94.5699 88.6667 95.4527 88.6667 96.5416C88.6667 97.6305 89.5495 98.5133 90.6384 98.5133Z" fill="#3C6E71"/>
<path d="M108.372 98.5133C109.46 98.5133 110.343 97.6305 110.343 96.5416C110.343 95.4527 109.46 94.5699 108.372 94.5699C107.283 94.5699 106.4 95.4527 106.4 96.5416C106.4 97.6305 107.283 98.5133 108.372 98.5133Z" fill="#3C6E71"/>
<path d="M126.105 98.5133C127.194 98.5133 128.077 97.6305 128.077 96.5416C128.077 95.4527 127.194 94.5699 126.105 94.5699C125.016 94.5699 124.133 95.4527 124.133 96.5416C124.133 97.6305 125.016 98.5133 126.105 98.5133Z" fill="#3C6E71"/>
<path d="M143.838 98.5133C144.927 98.5133 145.81 97.6305 145.81 96.5416C145.81 95.4527 144.927 94.5699 143.838 94.5699C142.749 94.5699 141.867 95.4527 141.867 96.5416C141.867 97.6305 142.749 98.5133 143.838 98.5133Z" fill="#3C6E71"/>
<path d="M161.572 98.5133C162.661 98.5133 163.543 97.6305 163.543 96.5416C163.543 95.4527 162.661 94.5699 161.572 94.5699C160.483 94.5699 159.6 95.4527 159.6 96.5416C159.6 97.6305 160.483 98.5133 161.572 98.5133Z" fill="#3C6E71"/>
<path d="M179.305 98.5133C180.394 98.5133 181.277 97.6305 181.277 96.5416C181.277 95.4527 180.394 94.5699 179.305 94.5699C178.216 94.5699 177.333 95.4527 177.333 96.5416C177.333 97.6305 178.216 98.5133 179.305 98.5133Z" fill="#3C6E71"/>
<path d="M3.94333 112.315C3.94333 113.4 3.05667 114.287 1.97167 114.287C0.886665 114.287 0 113.4 0 112.315C0 111.23 0.886665 110.343 1.97167 110.343C3.05667 110.343 3.94333 111.218 3.94333 112.315Z" fill="#3C6E71"/>
<path d="M21.6767 112.315C21.6767 113.4 20.7901 114.287 19.7051 114.287C18.6201 114.287 17.7334 113.4 17.7334 112.315C17.7334 111.23 18.6201 110.343 19.7051 110.343C20.7901 110.343 21.6767 111.218 21.6767 112.315Z" fill="#3C6E71"/>
<path d="M39.4099 112.315C39.4099 113.4 38.5232 114.287 37.4382 114.287C36.3532 114.287 35.4666 113.4 35.4666 112.315C35.4666 111.23 36.3532 110.343 37.4382 110.343C38.5232 110.343 39.4099 111.218 39.4099 112.315Z" fill="#3C6E71"/>
<path d="M57.1433 112.315C57.1433 113.4 56.2566 114.287 55.1716 114.287C54.0866 114.287 53.2 113.4 53.2 112.315C53.2 111.23 54.0866 110.343 55.1716 110.343C56.2566 110.343 57.1433 111.218 57.1433 112.315Z" fill="#3C6E71"/>
<path d="M74.8767 112.315C74.8767 113.4 73.99 114.287 72.905 114.287C71.82 114.287 70.9333 113.4 70.9333 112.315C70.9333 111.23 71.82 110.343 72.905 110.343C73.99 110.343 74.8767 111.218 74.8767 112.315Z" fill="#3C6E71"/>
<path d="M92.6101 112.315C92.6101 113.4 91.7234 114.287 90.6384 114.287C89.5534 114.287 88.6667 113.4 88.6667 112.315C88.6667 111.23 89.5534 110.343 90.6384 110.343C91.7234 110.343 92.6101 111.218 92.6101 112.315Z" fill="#3C6E71"/>
<path d="M110.343 112.315C110.343 113.4 109.457 114.287 108.372 114.287C107.287 114.287 106.4 113.4 106.4 112.315C106.4 111.23 107.287 110.343 108.372 110.343C109.457 110.343 110.343 111.218 110.343 112.315Z" fill="#3C6E71"/>
<path d="M128.077 112.315C128.077 113.4 127.19 114.287 126.105 114.287C125.02 114.287 124.133 113.4 124.133 112.315C124.133 111.23 125.02 110.343 126.105 110.343C127.19 110.343 128.077 111.218 128.077 112.315Z" fill="#3C6E71"/>
<path d="M145.81 112.315C145.81 113.4 144.923 114.287 143.838 114.287C142.753 114.287 141.867 113.4 141.867 112.315C141.867 111.23 142.753 110.343 143.838 110.343C144.923 110.343 145.81 111.218 145.81 112.315Z" fill="#3C6E71"/>
<path d="M163.543 112.315C163.543 113.4 162.657 114.287 161.572 114.287C160.487 114.287 159.6 113.4 159.6 112.315C159.6 111.23 160.487 110.343 161.572 110.343C162.657 110.343 163.543 111.218 163.543 112.315Z" fill="#3C6E71"/>
<path d="M181.277 112.315C181.277 113.4 180.39 114.287 179.305 114.287C178.22 114.287 177.333 113.4 177.333 112.315C177.333 111.23 178.22 110.343 179.305 110.343C180.39 110.343 181.277 111.218 181.277 112.315Z" fill="#3C6E71"/>
<path d="M3.94333 128.077C3.94333 129.162 3.05667 130.048 1.97167 130.048C0.886665 130.048 0 129.162 0 128.077C0 126.992 0.886665 126.105 1.97167 126.105C3.05667 126.105 3.94333 126.98 3.94333 128.077Z" fill="#3C6E71"/>
<path d="M21.6767 128.077C21.6767 129.162 20.7901 130.048 19.7051 130.048C18.6201 130.048 17.7334 129.162 17.7334 128.077C17.7334 126.992 18.6201 126.105 19.7051 126.105C20.7901 126.105 21.6767 126.98 21.6767 128.077Z" fill="#3C6E71"/>
<path d="M39.4099 128.077C39.4099 129.162 38.5232 130.048 37.4382 130.048C36.3532 130.048 35.4666 129.162 35.4666 128.077C35.4666 126.992 36.3532 126.105 37.4382 126.105C38.5232 126.105 39.4099 126.98 39.4099 128.077Z" fill="#3C6E71"/>
<path d="M57.1433 128.077C57.1433 129.162 56.2566 130.048 55.1716 130.048C54.0866 130.048 53.2 129.162 53.2 128.077C53.2 126.992 54.0866 126.105 55.1716 126.105C56.2566 126.105 57.1433 126.98 57.1433 128.077Z" fill="#3C6E71"/>
<path d="M74.8767 128.077C74.8767 129.162 73.99 130.048 72.905 130.048C71.82 130.048 70.9333 129.162 70.9333 128.077C70.9333 126.992 71.82 126.105 72.905 126.105C73.99 126.105 74.8767 126.98 74.8767 128.077Z" fill="#3C6E71"/>
<path d="M92.6101 128.077C92.6101 129.162 91.7234 130.048 90.6384 130.048C89.5534 130.048 88.6667 129.162 88.6667 128.077C88.6667 126.992 89.5534 126.105 90.6384 126.105C91.7234 126.105 92.6101 126.98 92.6101 128.077Z" fill="#3C6E71"/>
<path d="M110.343 128.077C110.343 129.162 109.457 130.048 108.372 130.048C107.287 130.048 106.4 129.162 106.4 128.077C106.4 126.992 107.287 126.105 108.372 126.105C109.457 126.105 110.343 126.98 110.343 128.077Z" fill="#3C6E71"/>
<path d="M128.077 128.077C128.077 129.162 127.19 130.048 126.105 130.048C125.02 130.048 124.133 129.162 124.133 128.077C124.133 126.992 125.02 126.105 126.105 126.105C127.19 126.105 128.077 126.98 128.077 128.077Z" fill="#3C6E71"/>
<path d="M145.81 128.077C145.81 129.162 144.923 130.048 143.838 130.048C142.753 130.048 141.867 129.162 141.867 128.077C141.867 126.992 142.753 126.105 143.838 126.105C144.923 126.105 145.81 126.98 145.81 128.077Z" fill="#3C6E71"/>
<path d="M163.543 128.077C163.543 129.162 162.657 130.048 161.572 130.048C160.487 130.048 159.6 129.162 159.6 128.077C159.6 126.992 160.487 126.105 161.572 126.105C162.657 126.105 163.543 126.98 163.543 128.077Z" fill="#3C6E71"/>
<path d="M181.277 128.077C181.277 129.162 180.39 130.048 179.305 130.048C178.22 130.048 177.333 129.162 177.333 128.077C177.333 126.992 178.22 126.105 179.305 126.105C180.39 126.105 181.277 126.98 181.277 128.077Z" fill="#3C6E71"/>
<path d="M3.94333 143.838C3.94333 144.923 3.05667 145.81 1.97167 145.81C0.886665 145.81 0 144.923 0 143.838C0 142.753 0.886665 141.867 1.97167 141.867C3.05667 141.867 3.94333 142.753 3.94333 143.838Z" fill="#3C6E71"/>
<path d="M21.6767 143.838C21.6767 144.923 20.7901 145.81 19.7051 145.81C18.6201 145.81 17.7334 144.923 17.7334 143.838C17.7334 142.753 18.6201 141.867 19.7051 141.867C20.7901 141.867 21.6767 142.753 21.6767 143.838Z" fill="#3C6E71"/>
<path d="M39.4099 143.838C39.4099 144.923 38.5232 145.81 37.4382 145.81C36.3532 145.81 35.4666 144.923 35.4666 143.838C35.4666 142.753 36.3532 141.867 37.4382 141.867C38.5232 141.867 39.4099 142.753 39.4099 143.838Z" fill="#3C6E71"/>
<path d="M57.1433 143.838C57.1433 144.923 56.2566 145.81 55.1716 145.81C54.0866 145.81 53.2 144.923 53.2 143.838C53.2 142.753 54.0866 141.867 55.1716 141.867C56.2566 141.867 57.1433 142.753 57.1433 143.838Z" fill="#3C6E71"/>
<path d="M74.8767 143.838C74.8767 144.923 73.99 145.81 72.905 145.81C71.82 145.81 70.9333 144.923 70.9333 143.838C70.9333 142.753 71.82 141.867 72.905 141.867C73.99 141.867 74.8767 142.753 74.8767 143.838Z" fill="#3C6E71"/>
<path d="M92.6101 143.838C92.6101 144.923 91.7234 145.81 90.6384 145.81C89.5534 145.81 88.6667 144.923 88.6667 143.838C88.6667 142.753 89.5534 141.867 90.6384 141.867C91.7234 141.867 92.6101 142.753 92.6101 143.838Z" fill="#3C6E71"/>
<path d="M110.343 143.838C110.343 144.923 109.457 145.81 108.372 145.81C107.287 145.81 106.4 144.923 106.4 143.838C106.4 142.753 107.287 141.867 108.372 141.867C109.457 141.867 110.343 142.753 110.343 143.838Z" fill="#3C6E71"/>
<path d="M128.077 143.838C128.077 144.923 127.19 145.81 126.105 145.81C125.02 145.81 124.133 144.923 124.133 143.838C124.133 142.753 125.02 141.867 126.105 141.867C127.19 141.867 128.077 142.753 128.077 143.838Z" fill="#3C6E71"/>
<path d="M145.81 143.838C145.81 144.923 144.923 145.81 143.838 145.81C142.753 145.81 141.867 144.923 141.867 143.838C141.867 142.753 142.753 141.867 143.838 141.867C144.923 141.867 145.81 142.753 145.81 143.838Z" fill="#3C6E71"/>
<path d="M163.543 143.838C163.543 144.923 162.657 145.81 161.572 145.81C160.487 145.81 159.6 144.923 159.6 143.838C159.6 142.753 160.487 141.867 161.572 141.867C162.657 141.867 163.543 142.753 163.543 143.838Z" fill="#3C6E71"/>
<path d="M181.277 143.838C181.277 144.923 180.39 145.81 179.305 145.81C178.22 145.81 177.333 144.923 177.333 143.838C177.333 142.753 178.22 141.867 179.305 141.867C180.39 141.867 181.277 142.753 181.277 143.838Z" fill="#3C6E71"/>
<path d="M1.97167 161.572C3.06059 161.572 3.94333 160.689 3.94333 159.6C3.94333 158.511 3.06059 157.628 1.97167 157.628C0.882744 157.628 0 158.511 0 159.6C0 160.689 0.882744 161.572 1.97167 161.572Z" fill="#3C6E71"/>
<path d="M19.7051 161.572C20.794 161.572 21.6767 160.689 21.6767 159.6C21.6767 158.511 20.794 157.628 19.7051 157.628C18.6161 157.628 17.7334 158.511 17.7334 159.6C17.7334 160.689 18.6161 161.572 19.7051 161.572Z" fill="#3C6E71"/>
<path d="M37.4382 161.572C38.5271 161.572 39.4099 160.689 39.4099 159.6C39.4099 158.511 38.5271 157.628 37.4382 157.628C36.3493 157.628 35.4666 158.511 35.4666 159.6C35.4666 160.689 36.3493 161.572 37.4382 161.572Z" fill="#3C6E71"/>
<path d="M57.1433 159.6C57.1433 160.685 56.2566 161.572 55.1716 161.572C54.0866 161.572 53.2 160.685 53.2 159.6C53.2 158.515 54.0866 157.628 55.1716 157.628C56.2566 157.628 57.1433 158.515 57.1433 159.6Z" fill="#3C6E71"/>
<path d="M74.8767 159.6C74.8767 160.685 73.99 161.572 72.905 161.572C71.82 161.572 70.9333 160.685 70.9333 159.6C70.9333 158.515 71.82 157.628 72.905 157.628C73.99 157.628 74.8767 158.515 74.8767 159.6Z" fill="#3C6E71"/>
<path d="M90.6384 161.572C91.7273 161.572 92.6101 160.689 92.6101 159.6C92.6101 158.511 91.7273 157.628 90.6384 157.628C89.5495 157.628 88.6667 158.511 88.6667 159.6C88.6667 160.689 89.5495 161.572 90.6384 161.572Z" fill="#3C6E71"/>
<path d="M108.372 161.572C109.46 161.572 110.343 160.689 110.343 159.6C110.343 158.511 109.46 157.628 108.372 157.628C107.283 157.628 106.4 158.511 106.4 159.6C106.4 160.689 107.283 161.572 108.372 161.572Z" fill="#3C6E71"/>
<path d="M126.105 161.572C127.194 161.572 128.077 160.689 128.077 159.6C128.077 158.511 127.194 157.628 126.105 157.628C125.016 157.628 124.133 158.511 124.133 159.6C124.133 160.689 125.016 161.572 126.105 161.572Z" fill="#3C6E71"/>
<path d="M143.838 161.572C144.927 161.572 145.81 160.689 145.81 159.6C145.81 158.511 144.927 157.628 143.838 157.628C142.749 157.628 141.867 158.511 141.867 159.6C141.867 160.689 142.749 161.572 143.838 161.572Z" fill="#3C6E71"/>
<path d="M161.572 161.572C162.661 161.572 163.543 160.689 163.543 159.6C163.543 158.511 162.661 157.628 161.572 157.628C160.483 157.628 159.6 158.511 159.6 159.6C159.6 160.689 160.483 161.572 161.572 161.572Z" fill="#3C6E71"/>
<path d="M179.305 161.572C180.394 161.572 181.277 160.689 181.277 159.6C181.277 158.511 180.394 157.628 179.305 157.628C178.216 157.628 177.333 158.511 177.333 159.6C177.333 160.689 178.216 161.572 179.305 161.572Z" fill="#3C6E71"/>
<path d="M3.94333 175.362C3.94333 176.447 3.05667 177.333 1.97167 177.333C0.886665 177.333 0 176.447 0 175.362C0 174.277 0.886665 173.39 1.97167 173.39C3.05667 173.39 3.94333 174.277 3.94333 175.362Z" fill="#3C6E71"/>
<path d="M21.6767 175.362C21.6767 176.447 20.7901 177.333 19.7051 177.333C18.6201 177.333 17.7334 176.447 17.7334 175.362C17.7334 174.277 18.6201 173.39 19.7051 173.39C20.7901 173.39 21.6767 174.277 21.6767 175.362Z" fill="#3C6E71"/>
<path d="M39.4099 175.362C39.4099 176.447 38.5232 177.333 37.4382 177.333C36.3532 177.333 35.4666 176.447 35.4666 175.362C35.4666 174.277 36.3532 173.39 37.4382 173.39C38.5232 173.39 39.4099 174.277 39.4099 175.362Z" fill="#3C6E71"/>
<path d="M57.1433 175.362C57.1433 176.447 56.2566 177.333 55.1716 177.333C54.0866 177.333 53.2 176.447 53.2 175.362C53.2 174.277 54.0866 173.39 55.1716 173.39C56.2566 173.39 57.1433 174.277 57.1433 175.362Z" fill="#3C6E71"/>
<path d="M74.8767 175.362C74.8767 176.447 73.99 177.333 72.905 177.333C71.82 177.333 70.9333 176.447 70.9333 175.362C70.9333 174.277 71.82 173.39 72.905 173.39C73.99 173.39 74.8767 174.277 74.8767 175.362Z" fill="#3C6E71"/>
<path d="M92.6101 175.362C92.6101 176.447 91.7234 177.333 90.6384 177.333C89.5534 177.333 88.6667 176.447 88.6667 175.362C88.6667 174.277 89.5534 173.39 90.6384 173.39C91.7234 173.39 92.6101 174.277 92.6101 175.362Z" fill="#3C6E71"/>
<path d="M110.343 175.362C110.343 176.447 109.457 177.333 108.372 177.333C107.287 177.333 106.4 176.447 106.4 175.362C106.4 174.277 107.287 173.39 108.372 173.39C109.457 173.39 110.343 174.277 110.343 175.362Z" fill="#3C6E71"/>
<path d="M128.077 175.362C128.077 176.447 127.19 177.333 126.105 177.333C125.02 177.333 124.133 176.447 124.133 175.362C124.133 174.277 125.02 173.39 126.105 173.39C127.19 173.39 128.077 174.277 128.077 175.362Z" fill="#3C6E71"/>
<path d="M145.81 175.362C145.81 176.447 144.923 177.333 143.838 177.333C142.753 177.333 141.867 176.447 141.867 175.362C141.867 174.277 142.753 173.39 143.838 173.39C144.923 173.39 145.81 174.277 145.81 175.362Z" fill="#3C6E71"/>
<path d="M163.543 175.362C163.543 176.447 162.657 177.333 161.572 177.333C160.487 177.333 159.6 176.447 159.6 175.362C159.6 174.277 160.487 173.39 161.572 173.39C162.657 173.39 163.543 174.277 163.543 175.362Z" fill="#3C6E71"/>
<path d="M181.277 175.362C181.277 176.447 180.39 177.333 179.305 177.333C178.22 177.333 177.333 176.447 177.333 175.362C177.333 174.277 178.22 173.39 179.305 173.39C180.39 173.39 181.277 174.277 181.277 175.362Z" fill="#3C6E71"/>
<path d="M386.972 385.943C388.061 385.943 388.943 385.061 388.943 383.972C388.943 382.883 388.061 382 386.972 382C385.883 382 385 382.883 385 383.972C385 385.061 385.883 385.943 386.972 385.943Z" fill="#3C6E71"/>
<path d="M404.705 385.943C405.794 385.943 406.677 385.061 406.677 383.972C406.677 382.883 405.794 382 404.705 382C403.616 382 402.733 382.883 402.733 383.972C402.733 385.061 403.616 385.943 404.705 385.943Z" fill="#3C6E71"/>
<path d="M422.438 385.943C423.527 385.943 424.41 385.061 424.41 383.972C424.41 382.883 423.527 382 422.438 382C421.349 382 420.467 382.883 420.467 383.972C420.467 385.061 421.349 385.943 422.438 385.943Z" fill="#3C6E71"/>
<path d="M442.143 383.972C442.143 385.057 441.257 385.943 440.172 385.943C439.087 385.943 438.2 385.057 438.2 383.972C438.2 382.887 439.087 382 440.172 382C441.257 382 442.143 382.887 442.143 383.972Z" fill="#3C6E71"/>
<path d="M459.877 383.972C459.877 385.057 458.99 385.943 457.905 385.943C456.82 385.943 455.933 385.057 455.933 383.972C455.933 382.887 456.82 382 457.905 382C458.99 382 459.877 382.887 459.877 383.972Z" fill="#3C6E71"/>
<path d="M475.638 385.943C476.727 385.943 477.61 385.061 477.61 383.972C477.61 382.883 476.727 382 475.638 382C474.549 382 473.667 382.883 473.667 383.972C473.667 385.061 474.549 385.943 475.638 385.943Z" fill="#3C6E71"/>
<path d="M493.372 385.943C494.46 385.943 495.343 385.061 495.343 383.972C495.343 382.883 494.46 382 493.372 382C492.283 382 491.4 382.883 491.4 383.972C491.4 385.061 492.283 385.943 493.372 385.943Z" fill="#3C6E71"/>
<path d="M511.105 385.943C512.194 385.943 513.077 385.061 513.077 383.972C513.077 382.883 512.194 382 511.105 382C510.016 382 509.133 382.883 509.133 383.972C509.133 385.061 510.016 385.943 511.105 385.943Z" fill="#3C6E71"/>
<path d="M528.838 385.943C529.927 385.943 530.81 385.061 530.81 383.972C530.81 382.883 529.927 382 528.838 382C527.749 382 526.867 382.883 526.867 383.972C526.867 385.061 527.749 385.943 528.838 385.943Z" fill="#3C6E71"/>
<path d="M546.572 385.943C547.661 385.943 548.543 385.061 548.543 383.972C548.543 382.883 547.661 382 546.572 382C545.483 382 544.6 382.883 544.6 383.972C544.6 385.061 545.483 385.943 546.572 385.943Z" fill="#3C6E71"/>
<path d="M564.305 385.943C565.394 385.943 566.277 385.061 566.277 383.972C566.277 382.883 565.394 382 564.305 382C563.216 382 562.333 382.883 562.333 383.972C562.333 385.061 563.216 385.943 564.305 385.943Z" fill="#3C6E71"/>
<path d="M386.972 401.705C388.061 401.705 388.943 400.822 388.943 399.733C388.943 398.644 388.061 397.762 386.972 397.762C385.883 397.762 385 398.644 385 399.733C385 400.822 385.883 401.705 386.972 401.705Z" fill="#3C6E71"/>
<path d="M404.705 401.705C405.794 401.705 406.677 400.822 406.677 399.733C406.677 398.644 405.794 397.762 404.705 397.762C403.616 397.762 402.733 398.644 402.733 399.733C402.733 400.822 403.616 401.705 404.705 401.705Z" fill="#3C6E71"/>
<path d="M422.438 401.705C423.527 401.705 424.41 400.822 424.41 399.733C424.41 398.644 423.527 397.762 422.438 397.762C421.349 397.762 420.467 398.644 420.467 399.733C420.467 400.822 421.349 401.705 422.438 401.705Z" fill="#3C6E71"/>
<path d="M442.143 399.733C442.143 400.818 441.257 401.705 440.172 401.705C439.087 401.705 438.2 400.818 438.2 399.733C438.2 398.648 439.087 397.762 440.172 397.762C441.257 397.762 442.143 398.648 442.143 399.733Z" fill="#3C6E71"/>
<path d="M459.877 399.733C459.877 400.818 458.99 401.705 457.905 401.705C456.82 401.705 455.933 400.818 455.933 399.733C455.933 398.648 456.82 397.762 457.905 397.762C458.99 397.762 459.877 398.648 459.877 399.733Z" fill="#3C6E71"/>
<path d="M475.638 401.705C476.727 401.705 477.61 400.822 477.61 399.733C477.61 398.644 476.727 397.762 475.638 397.762C474.549 397.762 473.667 398.644 473.667 399.733C473.667 400.822 474.549 401.705 475.638 401.705Z" fill="#3C6E71"/>
<path d="M493.372 401.705C494.46 401.705 495.343 400.822 495.343 399.733C495.343 398.644 494.46 397.762 493.372 397.762C492.283 397.762 491.4 398.644 491.4 399.733C491.4 400.822 492.283 401.705 493.372 401.705Z" fill="#3C6E71"/>
<path d="M511.105 401.705C512.194 401.705 513.077 400.822 513.077 399.733C513.077 398.644 512.194 397.762 511.105 397.762C510.016 397.762 509.133 398.644 509.133 399.733C509.133 400.822 510.016 401.705 511.105 401.705Z" fill="#3C6E71"/>
<path d="M528.838 401.705C529.927 401.705 530.81 400.822 530.81 399.733C530.81 398.644 529.927 397.762 528.838 397.762C527.749 397.762 526.867 398.644 526.867 399.733C526.867 400.822 527.749 401.705 528.838 401.705Z" fill="#3C6E71"/>
<path d="M546.572 401.705C547.661 401.705 548.543 400.822 548.543 399.733C548.543 398.644 547.661 397.762 546.572 397.762C545.483 397.762 544.6 398.644 544.6 399.733C544.6 400.822 545.483 401.705 546.572 401.705Z" fill="#3C6E71"/>
<path d="M564.305 401.705C565.394 401.705 566.277 400.822 566.277 399.733C566.277 398.644 565.394 397.762 564.305 397.762C563.216 397.762 562.333 398.644 562.333 399.733C562.333 400.822 563.216 401.705 564.305 401.705Z" fill="#3C6E71"/>
<path d="M386.972 417.467C388.061 417.467 388.943 416.584 388.943 415.495C388.943 414.406 388.061 413.523 386.972 413.523C385.883 413.523 385 414.406 385 415.495C385 416.584 385.883 417.467 386.972 417.467Z" fill="#3C6E71"/>
<path d="M404.705 417.467C405.794 417.467 406.677 416.584 406.677 415.495C406.677 414.406 405.794 413.523 404.705 413.523C403.616 413.523 402.733 414.406 402.733 415.495C402.733 416.584 403.616 417.467 404.705 417.467Z" fill="#3C6E71"/>
<path d="M422.438 417.467C423.527 417.467 424.41 416.584 424.41 415.495C424.41 414.406 423.527 413.523 422.438 413.523C421.349 413.523 420.467 414.406 420.467 415.495C420.467 416.584 421.349 417.467 422.438 417.467Z" fill="#3C6E71"/>
<path d="M442.143 415.495C442.143 416.58 441.257 417.467 440.172 417.467C439.087 417.467 438.2 416.58 438.2 415.495C438.2 414.41 439.087 413.523 440.172 413.523C441.257 413.523 442.143 414.41 442.143 415.495Z" fill="#3C6E71"/>
<path d="M459.877 415.495C459.877 416.58 458.99 417.467 457.905 417.467C456.82 417.467 455.933 416.58 455.933 415.495C455.933 414.41 456.82 413.523 457.905 413.523C458.99 413.523 459.877 414.41 459.877 415.495Z" fill="#3C6E71"/>
<path d="M475.638 417.467C476.727 417.467 477.61 416.584 477.61 415.495C477.61 414.406 476.727 413.523 475.638 413.523C474.549 413.523 473.667 414.406 473.667 415.495C473.667 416.584 474.549 417.467 475.638 417.467Z" fill="#3C6E71"/>
<path d="M493.372 417.467C494.46 417.467 495.343 416.584 495.343 415.495C495.343 414.406 494.46 413.523 493.372 413.523C492.283 413.523 491.4 414.406 491.4 415.495C491.4 416.584 492.283 417.467 493.372 417.467Z" fill="#3C6E71"/>
<path d="M511.105 417.467C512.194 417.467 513.077 416.584 513.077 415.495C513.077 414.406 512.194 413.523 511.105 413.523C510.016 413.523 509.133 414.406 509.133 415.495C509.133 416.584 510.016 417.467 511.105 417.467Z" fill="#3C6E71"/>
<path d="M528.838 417.467C529.927 417.467 530.81 416.584 530.81 415.495C530.81 414.406 529.927 413.523 528.838 413.523C527.749 413.523 526.867 414.406 526.867 415.495C526.867 416.584 527.749 417.467 528.838 417.467Z" fill="#3C6E71"/>
<path d="M546.572 417.467C547.661 417.467 548.543 416.584 548.543 415.495C548.543 414.406 547.661 413.523 546.572 413.523C545.483 413.523 544.6 414.406 544.6 415.495C544.6 416.584 545.483 417.467 546.572 417.467Z" fill="#3C6E71"/>
<path d="M564.305 417.467C565.394 417.467 566.277 416.584 566.277 415.495C566.277 414.406 565.394 413.523 564.305 413.523C563.216 413.523 562.333 414.406 562.333 415.495C562.333 416.584 563.216 417.467 564.305 417.467Z" fill="#3C6E71"/>
<path d="M388.943 431.257C388.943 432.342 388.057 433.228 386.972 433.228C385.887 433.228 385 432.342 385 431.257C385 430.172 385.887 429.285 386.972 429.285C388.057 429.285 388.943 430.172 388.943 431.257Z" fill="#3C6E71"/>
<path d="M406.677 431.257C406.677 432.342 405.79 433.228 404.705 433.228C403.62 433.228 402.733 432.342 402.733 431.257C402.733 430.172 403.62 429.285 404.705 429.285C405.79 429.285 406.677 430.172 406.677 431.257Z" fill="#3C6E71"/>
<path d="M424.41 431.257C424.41 432.342 423.523 433.228 422.438 433.228C421.353 433.228 420.467 432.342 420.467 431.257C420.467 430.172 421.353 429.285 422.438 429.285C423.523 429.285 424.41 430.172 424.41 431.257Z" fill="#3C6E71"/>
<path d="M442.143 431.257C442.143 432.342 441.257 433.228 440.172 433.228C439.087 433.228 438.2 432.342 438.2 431.257C438.2 430.172 439.087 429.285 440.172 429.285C441.257 429.285 442.143 430.172 442.143 431.257Z" fill="#3C6E71"/>
<path d="M459.877 431.257C459.877 432.342 458.99 433.228 457.905 433.228C456.82 433.228 455.933 432.342 455.933 431.257C455.933 430.172 456.82 429.285 457.905 429.285C458.99 429.285 459.877 430.172 459.877 431.257Z" fill="#3C6E71"/>
<path d="M477.61 431.257C477.61 432.342 476.723 433.228 475.638 433.228C474.553 433.228 473.667 432.342 473.667 431.257C473.667 430.172 474.553 429.285 475.638 429.285C476.723 429.285 477.61 430.172 477.61 431.257Z" fill="#3C6E71"/>
<path d="M495.343 431.257C495.343 432.342 494.457 433.228 493.372 433.228C492.287 433.228 491.4 432.342 491.4 431.257C491.4 430.172 492.287 429.285 493.372 429.285C494.457 429.285 495.343 430.172 495.343 431.257Z" fill="#3C6E71"/>
<path d="M513.077 431.257C513.077 432.342 512.19 433.228 511.105 433.228C510.02 433.228 509.133 432.342 509.133 431.257C509.133 430.172 510.02 429.285 511.105 429.285C512.19 429.285 513.077 430.172 513.077 431.257Z" fill="#3C6E71"/>
<path d="M530.81 431.257C530.81 432.342 529.923 433.228 528.838 433.228C527.753 433.228 526.867 432.342 526.867 431.257C526.867 430.172 527.753 429.285 528.838 429.285C529.923 429.285 530.81 430.172 530.81 431.257Z" fill="#3C6E71"/>
<path d="M548.543 431.257C548.543 432.342 547.657 433.228 546.572 433.228C545.487 433.228 544.6 432.342 544.6 431.257C544.6 430.172 545.487 429.285 546.572 429.285C547.657 429.285 548.543 430.172 548.543 431.257Z" fill="#3C6E71"/>
<path d="M566.277 431.257C566.277 432.342 565.39 433.228 564.305 433.228C563.22 433.228 562.333 432.342 562.333 431.257C562.333 430.172 563.22 429.285 564.305 429.285C565.39 429.285 566.277 430.172 566.277 431.257Z" fill="#3C6E71"/>
<path d="M388.943 447.018C388.943 448.103 388.057 448.99 386.972 448.99C385.887 448.99 385 448.103 385 447.018C385 445.933 385.887 445.047 386.972 445.047C388.057 445.047 388.943 445.933 388.943 447.018Z" fill="#3C6E71"/>
<path d="M406.677 447.018C406.677 448.103 405.79 448.99 404.705 448.99C403.62 448.99 402.733 448.103 402.733 447.018C402.733 445.933 403.62 445.047 404.705 445.047C405.79 445.047 406.677 445.933 406.677 447.018Z" fill="#3C6E71"/>
<path d="M424.41 447.018C424.41 448.103 423.523 448.99 422.438 448.99C421.353 448.99 420.467 448.103 420.467 447.018C420.467 445.933 421.353 445.047 422.438 445.047C423.523 445.047 424.41 445.933 424.41 447.018Z" fill="#3C6E71"/>
<path d="M442.143 447.018C442.143 448.103 441.257 448.99 440.172 448.99C439.087 448.99 438.2 448.103 438.2 447.018C438.2 445.933 439.087 445.047 440.172 445.047C441.257 445.047 442.143 445.933 442.143 447.018Z" fill="#3C6E71"/>
<path d="M459.877 447.018C459.877 448.103 458.99 448.99 457.905 448.99C456.82 448.99 455.933 448.103 455.933 447.018C455.933 445.933 456.82 445.047 457.905 445.047C458.99 445.047 459.877 445.933 459.877 447.018Z" fill="#3C6E71"/>
<path d="M477.61 447.018C477.61 448.103 476.723 448.99 475.638 448.99C474.553 448.99 473.667 448.103 473.667 447.018C473.667 445.933 474.553 445.047 475.638 445.047C476.723 445.047 477.61 445.933 477.61 447.018Z" fill="#3C6E71"/>
<path d="M495.343 447.018C495.343 448.103 494.457 448.99 493.372 448.99C492.287 448.99 491.4 448.103 491.4 447.018C491.4 445.933 492.287 445.047 493.372 445.047C494.457 445.047 495.343 445.933 495.343 447.018Z" fill="#3C6E71"/>
<path d="M513.077 447.018C513.077 448.103 512.19 448.99 511.105 448.99C510.02 448.99 509.133 448.103 509.133 447.018C509.133 445.933 510.02 445.047 511.105 445.047C512.19 445.047 513.077 445.933 513.077 447.018Z" fill="#3C6E71"/>
<path d="M530.81 447.018C530.81 448.103 529.923 448.99 528.838 448.99C527.753 448.99 526.867 448.103 526.867 447.018C526.867 445.933 527.753 445.047 528.838 445.047C529.923 445.047 530.81 445.933 530.81 447.018Z" fill="#3C6E71"/>
<path d="M548.543 447.018C548.543 448.103 547.657 448.99 546.572 448.99C545.487 448.99 544.6 448.103 544.6 447.018C544.6 445.933 545.487 445.047 546.572 445.047C547.657 445.047 548.543 445.933 548.543 447.018Z" fill="#3C6E71"/>
<path d="M566.277 447.018C566.277 448.103 565.39 448.99 564.305 448.99C563.22 448.99 562.333 448.103 562.333 447.018C562.333 445.933 563.22 445.047 564.305 445.047C565.39 445.047 566.277 445.933 566.277 447.018Z" fill="#3C6E71"/>
<path d="M388.943 462.78C388.943 463.865 388.057 464.752 386.972 464.752C385.887 464.752 385 463.865 385 462.78C385 461.695 385.887 460.808 386.972 460.808C388.057 460.808 388.943 461.695 388.943 462.78Z" fill="#3C6E71"/>
<path d="M406.677 462.78C406.677 463.865 405.79 464.752 404.705 464.752C403.62 464.752 402.733 463.865 402.733 462.78C402.733 461.695 403.62 460.808 404.705 460.808C405.79 460.808 406.677 461.695 406.677 462.78Z" fill="#3C6E71"/>
<path d="M424.41 462.78C424.41 463.865 423.523 464.752 422.438 464.752C421.353 464.752 420.467 463.865 420.467 462.78C420.467 461.695 421.353 460.808 422.438 460.808C423.523 460.808 424.41 461.695 424.41 462.78Z" fill="#3C6E71"/>
<path d="M442.143 462.78C442.143 463.865 441.257 464.752 440.172 464.752C439.087 464.752 438.2 463.865 438.2 462.78C438.2 461.695 439.087 460.808 440.172 460.808C441.257 460.808 442.143 461.695 442.143 462.78Z" fill="#3C6E71"/>
<path d="M459.877 462.78C459.877 463.865 458.99 464.752 457.905 464.752C456.82 464.752 455.933 463.865 455.933 462.78C455.933 461.695 456.82 460.808 457.905 460.808C458.99 460.808 459.877 461.695 459.877 462.78Z" fill="#3C6E71"/>
<path d="M477.61 462.78C477.61 463.865 476.723 464.752 475.638 464.752C474.553 464.752 473.667 463.865 473.667 462.78C473.667 461.695 474.553 460.808 475.638 460.808C476.723 460.808 477.61 461.695 477.61 462.78Z" fill="#3C6E71"/>
<path d="M495.343 462.78C495.343 463.865 494.457 464.752 493.372 464.752C492.287 464.752 491.4 463.865 491.4 462.78C491.4 461.695 492.287 460.808 493.372 460.808C494.457 460.808 495.343 461.695 495.343 462.78Z" fill="#3C6E71"/>
<path d="M513.077 462.78C513.077 463.865 512.19 464.752 511.105 464.752C510.02 464.752 509.133 463.865 509.133 462.78C509.133 461.695 510.02 460.808 511.105 460.808C512.19 460.808 513.077 461.695 513.077 462.78Z" fill="#3C6E71"/>
<path d="M530.81 462.78C530.81 463.865 529.923 464.752 528.838 464.752C527.753 464.752 526.867 463.865 526.867 462.78C526.867 461.695 527.753 460.808 528.838 460.808C529.923 460.808 530.81 461.695 530.81 462.78Z" fill="#3C6E71"/>
<path d="M548.543 462.78C548.543 463.865 547.657 464.752 546.572 464.752C545.487 464.752 544.6 463.865 544.6 462.78C544.6 461.695 545.487 460.808 546.572 460.808C547.657 460.808 548.543 461.695 548.543 462.78Z" fill="#3C6E71"/>
<path d="M566.277 462.78C566.277 463.865 565.39 464.752 564.305 464.752C563.22 464.752 562.333 463.865 562.333 462.78C562.333 461.695 563.22 460.808 564.305 460.808C565.39 460.808 566.277 461.695 566.277 462.78Z" fill="#3C6E71"/>
<path d="M386.972 480.513C388.061 480.513 388.943 479.631 388.943 478.542C388.943 477.453 388.061 476.57 386.972 476.57C385.883 476.57 385 477.453 385 478.542C385 479.631 385.883 480.513 386.972 480.513Z" fill="#3C6E71"/>
<path d="M404.705 480.513C405.794 480.513 406.677 479.631 406.677 478.542C406.677 477.453 405.794 476.57 404.705 476.57C403.616 476.57 402.733 477.453 402.733 478.542C402.733 479.631 403.616 480.513 404.705 480.513Z" fill="#3C6E71"/>
<path d="M422.438 480.513C423.527 480.513 424.41 479.631 424.41 478.542C424.41 477.453 423.527 476.57 422.438 476.57C421.349 476.57 420.467 477.453 420.467 478.542C420.467 479.631 421.349 480.513 422.438 480.513Z" fill="#3C6E71"/>
<path d="M442.143 478.542C442.143 479.627 441.257 480.513 440.172 480.513C439.087 480.513 438.2 479.627 438.2 478.542C438.2 477.457 439.087 476.57 440.172 476.57C441.257 476.582 442.143 477.457 442.143 478.542Z" fill="#3C6E71"/>
<path d="M459.877 478.542C459.877 479.627 458.99 480.513 457.905 480.513C456.82 480.513 455.933 479.627 455.933 478.542C455.933 477.457 456.82 476.57 457.905 476.57C458.99 476.582 459.877 477.457 459.877 478.542Z" fill="#3C6E71"/>
<path d="M475.638 480.513C476.727 480.513 477.61 479.631 477.61 478.542C477.61 477.453 476.727 476.57 475.638 476.57C474.549 476.57 473.667 477.453 473.667 478.542C473.667 479.631 474.549 480.513 475.638 480.513Z" fill="#3C6E71"/>
<path d="M493.372 480.513C494.46 480.513 495.343 479.631 495.343 478.542C495.343 477.453 494.46 476.57 493.372 476.57C492.283 476.57 491.4 477.453 491.4 478.542C491.4 479.631 492.283 480.513 493.372 480.513Z" fill="#3C6E71"/>
<path d="M511.105 480.513C512.194 480.513 513.077 479.631 513.077 478.542C513.077 477.453 512.194 476.57 511.105 476.57C510.016 476.57 509.133 477.453 509.133 478.542C509.133 479.631 510.016 480.513 511.105 480.513Z" fill="#3C6E71"/>
<path d="M528.838 480.513C529.927 480.513 530.81 479.631 530.81 478.542C530.81 477.453 529.927 476.57 528.838 476.57C527.749 476.57 526.867 477.453 526.867 478.542C526.867 479.631 527.749 480.513 528.838 480.513Z" fill="#3C6E71"/>
<path d="M546.572 480.513C547.661 480.513 548.543 479.631 548.543 478.542C548.543 477.453 547.661 476.57 546.572 476.57C545.483 476.57 544.6 477.453 544.6 478.542C544.6 479.631 545.483 480.513 546.572 480.513Z" fill="#3C6E71"/>
<path d="M564.305 480.513C565.394 480.513 566.277 479.631 566.277 478.542C566.277 477.453 565.394 476.57 564.305 476.57C563.216 476.57 562.333 477.453 562.333 478.542C562.333 479.631 563.216 480.513 564.305 480.513Z" fill="#3C6E71"/>
<path d="M388.943 494.315C388.943 495.4 388.057 496.287 386.972 496.287C385.887 496.287 385 495.4 385 494.315C385 493.23 385.887 492.343 386.972 492.343C388.057 492.343 388.943 493.218 388.943 494.315Z" fill="#3C6E71"/>
<path d="M406.677 494.315C406.677 495.4 405.79 496.287 404.705 496.287C403.62 496.287 402.733 495.4 402.733 494.315C402.733 493.23 403.62 492.343 404.705 492.343C405.79 492.343 406.677 493.218 406.677 494.315Z" fill="#3C6E71"/>
<path d="M424.41 494.315C424.41 495.4 423.523 496.287 422.438 496.287C421.353 496.287 420.467 495.4 420.467 494.315C420.467 493.23 421.353 492.343 422.438 492.343C423.523 492.343 424.41 493.218 424.41 494.315Z" fill="#3C6E71"/>
<path d="M442.143 494.315C442.143 495.4 441.257 496.287 440.172 496.287C439.087 496.287 438.2 495.4 438.2 494.315C438.2 493.23 439.087 492.343 440.172 492.343C441.257 492.343 442.143 493.218 442.143 494.315Z" fill="#3C6E71"/>
<path d="M459.877 494.315C459.877 495.4 458.99 496.287 457.905 496.287C456.82 496.287 455.933 495.4 455.933 494.315C455.933 493.23 456.82 492.343 457.905 492.343C458.99 492.343 459.877 493.218 459.877 494.315Z" fill="#3C6E71"/>
<path d="M477.61 494.315C477.61 495.4 476.723 496.287 475.638 496.287C474.553 496.287 473.667 495.4 473.667 494.315C473.667 493.23 474.553 492.343 475.638 492.343C476.723 492.343 477.61 493.218 477.61 494.315Z" fill="#3C6E71"/>
<path d="M495.343 494.315C495.343 495.4 494.457 496.287 493.372 496.287C492.287 496.287 491.4 495.4 491.4 494.315C491.4 493.23 492.287 492.343 493.372 492.343C494.457 492.343 495.343 493.218 495.343 494.315Z" fill="#3C6E71"/>
<path d="M513.077 494.315C513.077 495.4 512.19 496.287 511.105 496.287C510.02 496.287 509.133 495.4 509.133 494.315C509.133 493.23 510.02 492.343 511.105 492.343C512.19 492.343 513.077 493.218 513.077 494.315Z" fill="#3C6E71"/>
<path d="M530.81 494.315C530.81 495.4 529.923 496.287 528.838 496.287C527.753 496.287 526.867 495.4 526.867 494.315C526.867 493.23 527.753 492.343 528.838 492.343C529.923 492.343 530.81 493.218 530.81 494.315Z" fill="#3C6E71"/>
<path d="M548.543 494.315C548.543 495.4 547.657 496.287 546.572 496.287C545.487 496.287 544.6 495.4 544.6 494.315C544.6 493.23 545.487 492.343 546.572 492.343C547.657 492.343 548.543 493.218 548.543 494.315Z" fill="#3C6E71"/>
<path d="M566.277 494.315C566.277 495.4 565.39 496.287 564.305 496.287C563.22 496.287 562.333 495.4 562.333 494.315C562.333 493.23 563.22 492.343 564.305 492.343C565.39 492.343 566.277 493.218 566.277 494.315Z" fill="#3C6E71"/>
<path d="M388.943 510.077C388.943 511.162 388.057 512.048 386.972 512.048C385.887 512.048 385 511.162 385 510.077C385 508.992 385.887 508.105 386.972 508.105C388.057 508.105 388.943 508.98 388.943 510.077Z" fill="#3C6E71"/>
<path d="M406.677 510.077C406.677 511.162 405.79 512.048 404.705 512.048C403.62 512.048 402.733 511.162 402.733 510.077C402.733 508.992 403.62 508.105 404.705 508.105C405.79 508.105 406.677 508.98 406.677 510.077Z" fill="#3C6E71"/>
<path d="M424.41 510.077C424.41 511.162 423.523 512.048 422.438 512.048C421.353 512.048 420.467 511.162 420.467 510.077C420.467 508.992 421.353 508.105 422.438 508.105C423.523 508.105 424.41 508.98 424.41 510.077Z" fill="#3C6E71"/>
<path d="M442.143 510.077C442.143 511.162 441.257 512.048 440.172 512.048C439.087 512.048 438.2 511.162 438.2 510.077C438.2 508.992 439.087 508.105 440.172 508.105C441.257 508.105 442.143 508.98 442.143 510.077Z" fill="#3C6E71"/>
<path d="M459.877 510.077C459.877 511.162 458.99 512.048 457.905 512.048C456.82 512.048 455.933 511.162 455.933 510.077C455.933 508.992 456.82 508.105 457.905 508.105C458.99 508.105 459.877 508.98 459.877 510.077Z" fill="#3C6E71"/>
<path d="M477.61 510.077C477.61 511.162 476.723 512.048 475.638 512.048C474.553 512.048 473.667 511.162 473.667 510.077C473.667 508.992 474.553 508.105 475.638 508.105C476.723 508.105 477.61 508.98 477.61 510.077Z" fill="#3C6E71"/>
<path d="M495.343 510.077C495.343 511.162 494.457 512.048 493.372 512.048C492.287 512.048 491.4 511.162 491.4 510.077C491.4 508.992 492.287 508.105 493.372 508.105C494.457 508.105 495.343 508.98 495.343 510.077Z" fill="#3C6E71"/>
<path d="M513.077 510.077C513.077 511.162 512.19 512.048 511.105 512.048C510.02 512.048 509.133 511.162 509.133 510.077C509.133 508.992 510.02 508.105 511.105 508.105C512.19 508.105 513.077 508.98 513.077 510.077Z" fill="#3C6E71"/>
<path d="M530.81 510.077C530.81 511.162 529.923 512.048 528.838 512.048C527.753 512.048 526.867 511.162 526.867 510.077C526.867 508.992 527.753 508.105 528.838 508.105C529.923 508.105 530.81 508.98 530.81 510.077Z" fill="#3C6E71"/>
<path d="M548.543 510.077C548.543 511.162 547.657 512.048 546.572 512.048C545.487 512.048 544.6 511.162 544.6 510.077C544.6 508.992 545.487 508.105 546.572 508.105C547.657 508.105 548.543 508.98 548.543 510.077Z" fill="#3C6E71"/>
<path d="M566.277 510.077C566.277 511.162 565.39 512.048 564.305 512.048C563.22 512.048 562.333 511.162 562.333 510.077C562.333 508.992 563.22 508.105 564.305 508.105C565.39 508.105 566.277 508.98 566.277 510.077Z" fill="#3C6E71"/>
<path d="M388.943 525.838C388.943 526.923 388.057 527.81 386.972 527.81C385.887 527.81 385 526.923 385 525.838C385 524.753 385.887 523.867 386.972 523.867C388.057 523.867 388.943 524.753 388.943 525.838Z" fill="#3C6E71"/>
<path d="M406.677 525.838C406.677 526.923 405.79 527.81 404.705 527.81C403.62 527.81 402.733 526.923 402.733 525.838C402.733 524.753 403.62 523.867 404.705 523.867C405.79 523.867 406.677 524.753 406.677 525.838Z" fill="#3C6E71"/>
<path d="M424.41 525.838C424.41 526.923 423.523 527.81 422.438 527.81C421.353 527.81 420.467 526.923 420.467 525.838C420.467 524.753 421.353 523.867 422.438 523.867C423.523 523.867 424.41 524.753 424.41 525.838Z" fill="#3C6E71"/>
<path d="M442.143 525.838C442.143 526.923 441.257 527.81 440.172 527.81C439.087 527.81 438.2 526.923 438.2 525.838C438.2 524.753 439.087 523.867 440.172 523.867C441.257 523.867 442.143 524.753 442.143 525.838Z" fill="#3C6E71"/>
<path d="M459.877 525.838C459.877 526.923 458.99 527.81 457.905 527.81C456.82 527.81 455.933 526.923 455.933 525.838C455.933 524.753 456.82 523.867 457.905 523.867C458.99 523.867 459.877 524.753 459.877 525.838Z" fill="#3C6E71"/>
<path d="M477.61 525.838C477.61 526.923 476.723 527.81 475.638 527.81C474.553 527.81 473.667 526.923 473.667 525.838C473.667 524.753 474.553 523.867 475.638 523.867C476.723 523.867 477.61 524.753 477.61 525.838Z" fill="#3C6E71"/>
<path d="M495.343 525.838C495.343 526.923 494.457 527.81 493.372 527.81C492.287 527.81 491.4 526.923 491.4 525.838C491.4 524.753 492.287 523.867 493.372 523.867C494.457 523.867 495.343 524.753 495.343 525.838Z" fill="#3C6E71"/>
<path d="M513.077 525.838C513.077 526.923 512.19 527.81 511.105 527.81C510.02 527.81 509.133 526.923 509.133 525.838C509.133 524.753 510.02 523.867 511.105 523.867C512.19 523.867 513.077 524.753 513.077 525.838Z" fill="#3C6E71"/>
<path d="M530.81 525.838C530.81 526.923 529.923 527.81 528.838 527.81C527.753 527.81 526.867 526.923 526.867 525.838C526.867 524.753 527.753 523.867 528.838 523.867C529.923 523.867 530.81 524.753 530.81 525.838Z" fill="#3C6E71"/>
<path d="M548.543 525.838C548.543 526.923 547.657 527.81 546.572 527.81C545.487 527.81 544.6 526.923 544.6 525.838C544.6 524.753 545.487 523.867 546.572 523.867C547.657 523.867 548.543 524.753 548.543 525.838Z" fill="#3C6E71"/>
<path d="M566.277 525.838C566.277 526.923 565.39 527.81 564.305 527.81C563.22 527.81 562.333 526.923 562.333 525.838C562.333 524.753 563.22 523.867 564.305 523.867C565.39 523.867 566.277 524.753 566.277 525.838Z" fill="#3C6E71"/>
<path d="M386.972 543.572C388.061 543.572 388.943 542.689 388.943 541.6C388.943 540.511 388.061 539.628 386.972 539.628C385.883 539.628 385 540.511 385 541.6C385 542.689 385.883 543.572 386.972 543.572Z" fill="#3C6E71"/>
<path d="M404.705 543.572C405.794 543.572 406.677 542.689 406.677 541.6C406.677 540.511 405.794 539.628 404.705 539.628C403.616 539.628 402.733 540.511 402.733 541.6C402.733 542.689 403.616 543.572 404.705 543.572Z" fill="#3C6E71"/>
<path d="M422.438 543.572C423.527 543.572 424.41 542.689 424.41 541.6C424.41 540.511 423.527 539.628 422.438 539.628C421.349 539.628 420.467 540.511 420.467 541.6C420.467 542.689 421.349 543.572 422.438 543.572Z" fill="#3C6E71"/>
<path d="M442.143 541.6C442.143 542.685 441.257 543.572 440.172 543.572C439.087 543.572 438.2 542.685 438.2 541.6C438.2 540.515 439.087 539.628 440.172 539.628C441.257 539.628 442.143 540.515 442.143 541.6Z" fill="#3C6E71"/>
<path d="M459.877 541.6C459.877 542.685 458.99 543.572 457.905 543.572C456.82 543.572 455.933 542.685 455.933 541.6C455.933 540.515 456.82 539.628 457.905 539.628C458.99 539.628 459.877 540.515 459.877 541.6Z" fill="#3C6E71"/>
<path d="M475.638 543.572C476.727 543.572 477.61 542.689 477.61 541.6C477.61 540.511 476.727 539.628 475.638 539.628C474.549 539.628 473.667 540.511 473.667 541.6C473.667 542.689 474.549 543.572 475.638 543.572Z" fill="#3C6E71"/>
<path d="M493.372 543.572C494.46 543.572 495.343 542.689 495.343 541.6C495.343 540.511 494.46 539.628 493.372 539.628C492.283 539.628 491.4 540.511 491.4 541.6C491.4 542.689 492.283 543.572 493.372 543.572Z" fill="#3C6E71"/>
<path d="M511.105 543.572C512.194 543.572 513.077 542.689 513.077 541.6C513.077 540.511 512.194 539.628 511.105 539.628C510.016 539.628 509.133 540.511 509.133 541.6C509.133 542.689 510.016 543.572 511.105 543.572Z" fill="#3C6E71"/>
<path d="M528.838 543.572C529.927 543.572 530.81 542.689 530.81 541.6C530.81 540.511 529.927 539.628 528.838 539.628C527.749 539.628 526.867 540.511 526.867 541.6C526.867 542.689 527.749 543.572 528.838 543.572Z" fill="#3C6E71"/>
<path d="M546.572 543.572C547.661 543.572 548.543 542.689 548.543 541.6C548.543 540.511 547.661 539.628 546.572 539.628C545.483 539.628 544.6 540.511 544.6 541.6C544.6 542.689 545.483 543.572 546.572 543.572Z" fill="#3C6E71"/>
<path d="M564.305 543.572C565.394 543.572 566.277 542.689 566.277 541.6C566.277 540.511 565.394 539.628 564.305 539.628C563.216 539.628 562.333 540.511 562.333 541.6C562.333 542.689 563.216 543.572 564.305 543.572Z" fill="#3C6E71"/>
<path d="M388.943 557.362C388.943 558.447 388.057 559.333 386.972 559.333C385.887 559.333 385 558.447 385 557.362C385 556.277 385.887 555.39 386.972 555.39C388.057 555.39 388.943 556.277 388.943 557.362Z" fill="#3C6E71"/>
<path d="M406.677 557.362C406.677 558.447 405.79 559.333 404.705 559.333C403.62 559.333 402.733 558.447 402.733 557.362C402.733 556.277 403.62 555.39 404.705 555.39C405.79 555.39 406.677 556.277 406.677 557.362Z" fill="#3C6E71"/>
<path d="M424.41 557.362C424.41 558.447 423.523 559.333 422.438 559.333C421.353 559.333 420.467 558.447 420.467 557.362C420.467 556.277 421.353 555.39 422.438 555.39C423.523 555.39 424.41 556.277 424.41 557.362Z" fill="#3C6E71"/>
<path d="M442.143 557.362C442.143 558.447 441.257 559.333 440.172 559.333C439.087 559.333 438.2 558.447 438.2 557.362C438.2 556.277 439.087 555.39 440.172 555.39C441.257 555.39 442.143 556.277 442.143 557.362Z" fill="#3C6E71"/>
<path d="M459.877 557.362C459.877 558.447 458.99 559.333 457.905 559.333C456.82 559.333 455.933 558.447 455.933 557.362C455.933 556.277 456.82 555.39 457.905 555.39C458.99 555.39 459.877 556.277 459.877 557.362Z" fill="#3C6E71"/>
<path d="M477.61 557.362C477.61 558.447 476.723 559.333 475.638 559.333C474.553 559.333 473.667 558.447 473.667 557.362C473.667 556.277 474.553 555.39 475.638 555.39C476.723 555.39 477.61 556.277 477.61 557.362Z" fill="#3C6E71"/>
<path d="M495.343 557.362C495.343 558.447 494.457 559.333 493.372 559.333C492.287 559.333 491.4 558.447 491.4 557.362C491.4 556.277 492.287 555.39 493.372 555.39C494.457 555.39 495.343 556.277 495.343 557.362Z" fill="#3C6E71"/>
<path d="M513.077 557.362C513.077 558.447 512.19 559.333 511.105 559.333C510.02 559.333 509.133 558.447 509.133 557.362C509.133 556.277 510.02 555.39 511.105 555.39C512.19 555.39 513.077 556.277 513.077 557.362Z" fill="#3C6E71"/>
<path d="M530.81 557.362C530.81 558.447 529.923 559.333 528.838 559.333C527.753 559.333 526.867 558.447 526.867 557.362C526.867 556.277 527.753 555.39 528.838 555.39C529.923 555.39 530.81 556.277 530.81 557.362Z" fill="#3C6E71"/>
<path d="M548.543 557.362C548.543 558.447 547.657 559.333 546.572 559.333C545.487 559.333 544.6 558.447 544.6 557.362C544.6 556.277 545.487 555.39 546.572 555.39C547.657 555.39 548.543 556.277 548.543 557.362Z" fill="#3C6E71"/>
<path d="M566.277 557.362C566.277 558.447 565.39 559.333 564.305 559.333C563.22 559.333 562.333 558.447 562.333 557.362C562.333 556.277 563.22 555.39 564.305 555.39C565.39 555.39 566.277 556.277 566.277 557.362Z" fill="#3C6E71"/>
<path d="M560.54 29.675L583.733 29.7316L583.797 52.9318L606.99 52.9883L607.046 76.1814L627.503 76.2309L627.56 96.6946L650.753 96.7511L650.816 119.951L674.009 120.008L674.066 143.201L697.089 143.258V140.684L676.633 140.634L676.576 117.441L653.383 117.385L653.319 94.1843L630.126 94.1278L630.077 73.657L609.613 73.6146L609.557 50.4215L586.364 50.365L586.3 27.1648L563.107 27.1082L563.05 6.64454L560.483 6.65161L560.54 29.675Z" fill="#3C6E71"/>
<path d="M560.54 29.675L583.733 29.7316L583.797 52.9318L606.99 52.9883L607.046 76.1814L627.503 76.2309L627.56 96.6946L650.753 96.7511L650.816 119.951L674.009 120.008L674.066 143.201L697.089 143.258V140.684L676.633 140.634L676.576 117.441L653.383 117.385L653.319 94.1843L630.126 94.1278L630.077 73.657L609.613 73.6146L609.557 50.4215L586.364 50.365L586.3 27.1648L563.107 27.1082L563.05 6.64454L560.483 6.65161L560.54 29.675Z" stroke="#3C6E71"/>
<path d="M349.87 341L333.43 357.36L316.98 341L300.54 357.36L284.1 341L269.6 355.43L255.09 341L238.65 357.36L222.2 341L205.76 357.36L189.32 341L173 357.24L174.82 359.06L189.32 344.63L205.76 360.99L222.2 344.63L238.65 360.99L255.09 344.63L269.6 359.07L284.1 344.63L300.54 360.99L316.98 344.63L333.43 360.99L349.87 344.63L364.38 359.06L366.19 357.24L349.87 341Z" fill="#3C6E71"/>
<path d="M349.87 341L333.43 357.36L316.98 341L300.54 357.36L284.1 341L269.6 355.43L255.09 341L238.65 357.36L222.2 341L205.76 357.36L189.32 341L173 357.24L174.82 359.06L189.32 344.63L205.76 360.99L222.2 344.63L238.65 360.99L255.09 344.63L269.6 359.07L284.1 344.63L300.54 360.99L316.98 344.63L333.43 360.99L349.87 344.63L364.38 359.06L366.19 357.24L349.87 341Z" stroke="#3C6E71"/>
</g>
<defs>
<clipPath id="clip0_147_104">
<rect width="700" height="700" fill="white"/>
</clipPath>
</defs>
</svg>
