<svg xmlns="http://www.w3.org/2000/svg" fill="none" viewBox="0 0 160 138">
<path fill="#fff" fill-rule="evenodd" d="m106.5.397 20.2 20.07c-9.7 11.127-8.3 15.598-4.1 27.818 2 5.663 2.2 8.942 2.2 12.916 0 5.564-2.4 11.823-5.9 15.698-5.6 6.16-9.9 7.153-19.6 8.047-8.2.795-14.8 2.086-19.6 8.346-4.8-6.16-11.1-7.551-19.6-8.346-9.5-.894-13.9-1.987-19.6-8.047-3.7-3.776-5.9-10.035-5.9-15.698 0-3.875.1-7.452 2.2-12.916 4.6-12.12 5.5-16.691-4.1-27.818L52.9.396C57.4 3.875 66.5 10.333 79.7 0c13 10.233 22.5 3.974 26.8.397zm-7.1 82.96c9.3-.994 12.9-1.888 18.1-7.452 3.4-3.577 5.6-9.14 5.6-14.803 0-3.875-.6-8.445-2.4-13.214-4.9-13.015-3.8-18.38 3.8-27.421L106.3 2.384s-11.7 10.83-26.6-.596c-14.8 11.426-26.6.596-26.6.596L34.9 20.466c7.7 9.14 8.8 14.506 3.8 27.422-1.9 4.769-2.4 9.438-2.4 13.213 0 5.564 2.2 11.327 5.6 14.804 5.3 5.464 8.8 6.458 18.1 7.451 7.5.895 14.8 1.987 19.7 7.452 4.9-5.465 12.3-6.756 19.7-7.452z" clip-rule="evenodd"></path><path fill="#fff" fill-rule="evenodd" d="M100.7 40.337c4.6 1.59 5.3 6.16 4.8 7.451l-7.4-.794s.4-2.981-1.7-2.981c-3.3 0-5.4 6.955-5.4 6.955s3.1-2.683 8-.895c5.6 1.988 4.2 9.042 1.4 13.612-3.4 5.663-11 6.358-15.5 4.67-7.1-2.683-4.9-10.532-2.6-17.09 3.3-9.338 9.9-13.81 18.4-10.928zm-6.9 20.07c.8-2.385 1.7-5.664-.8-6.16-1.9-.398-3.3 1.788-4.1 3.874-1.1 2.285-1.9 6.06.1 6.557 2.2.596 3.9-1.887 4.8-4.272z" clip-rule="evenodd"></path><path fill="#101820" fill-rule="evenodd" d="m106.3 2.384 18.2 18.182c-7.5 9.04-8.6 14.406-3.9 27.421 1.8 4.769 2.4 9.438 2.4 13.214 0 5.663-2.2 11.227-5.6 14.803-5.1 5.564-8.8 6.558-18.1 7.452-7.5.795-14.8 1.987-19.7 7.451-4.9-5.464-12.2-6.656-19.7-7.451-9.3-1.093-12.8-2.087-18.1-7.452-3.4-3.378-5.6-9.24-5.6-14.803 0-3.875.5-8.445 2.4-13.214 5.1-12.916 4-18.38-3.8-27.421L53.1 2.384s11.8 10.83 26.6-.596c14.9 11.426 26.6.596 26.6.596zm-6.83 77.993c6.423-.933 10.693-1.554 15.43-6.26 7-6.955 6.3-16.79 2.1-27.819-4.9-12.916-.6-20.367 3.5-25.533L106 6.359S94.6 15.3 79.7 5.663c-14.9 9.637-26.3.696-26.3.696L38.7 20.765c4 5.166 8.5 12.518 3.5 25.533-4.2 11.127-4.7 20.963 2.1 27.819 4.737 4.706 9.007 5.327 15.43 6.26l.67.098c.997.136 1.925.254 2.801.365 6.158.78 9.746 1.235 16.4 5.497 6.6-4.229 10.335-4.71 16.314-5.479.905-.116 1.86-.24 2.885-.383l.67-.097z" clip-rule="evenodd"></path><path fill="#000" fill-rule="evenodd" d="M100.7 40.337c4.6 1.59 5.3 6.16 4.8 7.451l-7.4-.794s.4-2.981-1.7-2.981c-3.3 0-5.4 6.955-5.4 6.955s3.1-2.683 8-.895c5.6 1.988 4.2 9.042 1.4 13.612-3.4 5.663-11 6.358-15.5 4.67-7.1-2.683-4.9-10.532-2.6-17.09 3.3-9.338 9.9-13.81 18.4-10.928zm-6.9 20.07c.8-2.385 1.7-5.664-.8-6.16-1.9-.398-3.3 1.788-4.1 3.874-1.1 2.285-1.9 6.06.1 6.557 2.2.596 3.9-1.887 4.8-4.272z" clip-rule="evenodd"></path><path fill="#fff" fill-rule="evenodd" d="m106 6.359 14.5 14.406c-4.1 5.166-8.4 12.617-3.3 25.533 4.2 11.128 4.8 20.963-2.1 27.819-4.711 4.68-9.052 5.32-15.335 6.245h-.002l-.763.113c-1.024.144-1.98.267-2.885.383-5.979.77-9.713 1.25-16.315 5.479-6.653-4.262-10.24-4.717-16.399-5.497-.876-.111-1.804-.229-2.8-.365l-.575-.082c-6.567-.943-10.763-1.545-15.526-6.276-6.9-6.955-6.4-16.692-2.1-27.819 5-13.015.6-20.367-3.5-25.533L53.4 6.359s11.4 8.941 26.3-.696C94.6 15.3 106 6.36 106 6.36zm.004 17.349c.2.111.4.222.596.335 1.7 1.093 1.5 2.087 1.4 1.888 0 2.186-3.1 2.583-3.1-.696h-2.5c0 1.59.3 4.372 4.1 4.372 3.7 0 4.3-2.484 4.3-3.775-.1-1.49-1-2.782-2.4-3.676l-.167-.1c-1.47-.875-3.233-1.924-3.233-2.881 0-1.788 2.9-2.186 2.9.695h2.7c.1-1.887-.2-4.272-4-4.272s-4 2.882-4 3.676c-.089 2.494 1.67 3.471 3.404 4.434zM93.7 16.095h2.7c.06 0 .133-.002.22-.005 1.249-.035 5.174-.147 5.08 4.774-.094 4.392-3.992 4.301-5.12 4.275a8.215 8.215 0 0 0-.18-.003v4.372h-2.7zm-2.6.1h-2.7v13.313h2.7zm-9.7 0h2.7V27.42H87v2.087h-5.6zm-4.2-.1h-2.7v13.313h5.6v-2.086h-2.9zm-8.2.1h2.7v13.313H69zm-7.8 0h-2.5v13.313h2.5v-5.663h2.6v5.663h2.6V16.194h-2.6v5.266h-2.6zm-11.9-.1H52c.06 0 .133-.002.22-.005 1.249-.035 5.174-.147 5.08 4.774-.094 4.392-3.992 4.301-5.12 4.275a8.215 8.215 0 0 0-.18-.003v4.372h-2.7zm47.038 60.852c1.759-.205 3.65-.425 5.762-.744 15.7-2.384 14.7-15.4 13.8-20.566l-.156-.681c-.276-1.211-.61-2.678-.944-3.591-.136-.386-.29-.808-.456-1.262-1.415-3.875-3.691-10.109-3.244-16.423H48.3c.524 6.417-1.847 12.909-3.256 16.769-.206.563-.39 1.07-.544 1.512-.225.522-.45 1.49-.632 2.278-.061.262-.118.504-.168.703-1 4.47-2.8 18.678 13.6 21.261 2.432.395 4.532.654 6.44.89 5.778.716 9.795 1.213 15.96 4.574 6.317-3.52 10.735-4.034 16.638-4.72z" clip-rule="evenodd"></path><path fill="#fff" fill-rule="evenodd" d="M100.7 40.337c4.6 1.59 5.3 6.16 4.8 7.451l-7.4-.794s.4-2.981-1.7-2.981c-3.3 0-5.4 6.955-5.4 6.955s3.1-2.683 8-.895c5.6 1.988 4.2 9.042 1.4 13.612-3.4 5.663-11 6.358-15.5 4.67-7.1-2.683-4.9-10.532-2.6-17.09 3.3-9.338 9.9-13.81 18.4-10.928zm-6.9 20.07c.8-2.385 1.7-5.664-.8-6.16-1.9-.398-3.3 1.788-4.1 3.874-1.1 2.285-1.9 6.06.1 6.557 2.2.596 3.9-1.887 4.8-4.272z" clip-rule="evenodd"></path><path fill="#da2b1f" fill-rule="evenodd" d="M115.8 55.737c-.2-1.292-.7-3.18-1.1-4.272-.107-.303-.224-.629-.349-.975-1.39-3.863-3.718-10.328-3.351-16.71H48.3c.524 6.416-1.847 12.908-3.257 16.768-.205.563-.39 1.07-.543 1.513-.23.611-.462 1.577-.647 2.351-.055.232-.107.446-.153.63-1 4.47-2.8 18.578 13.6 21.26 2.49.404 4.631.66 6.575.893 5.706.684 9.709 1.163 15.825 4.572 6.375-3.476 10.816-4.01 16.8-4.728a179.09 179.09 0 0 0 5.6-.737c15.7-2.483 14.7-15.499 13.7-20.565zm-37.6-7.949-7.4-.496s.5-2.98-1.7-2.98c-3.3 0-5.4 6.954-5.4 6.954s3.1-2.583 8-.894c5.5 1.987 4.2 9.04 1.4 13.61-3.5 5.664-11.1 6.36-15.5 4.67-7.1-2.682-5-10.63-2.6-17.088 3.3-9.14 9.6-13.81 18.4-10.929 4.6 1.192 5.3 5.862 4.8 7.153zm19.9-.496 7.4.496c.5-1.291-.2-5.96-4.8-7.153-8.5-2.881-15 1.59-18.4 10.929-2.4 6.458-4.5 14.406 2.6 17.088 4.4 1.69 12 .994 15.5-4.67 2.8-4.57 4.1-11.623-1.4-13.61-4.9-1.69-8 .894-8 .894s2.1-6.955 5.4-6.955c2.2 0 1.7 2.98 1.7 2.98z" clip-rule="evenodd"></path><path fill="#da291c" fill-rule="evenodd" d="M100.7 40.337c4.6 1.59 5.3 6.16 4.8 7.451l-7.4-.794s.4-2.981-1.7-2.981c-3.3 0-5.4 6.955-5.4 6.955s3.1-2.683 8-.895c5.6 1.988 4.2 9.042 1.4 13.612-3.4 5.663-11 6.358-15.5 4.67-7.1-2.683-4.9-10.532-2.6-17.09 3.3-9.338 9.9-13.81 18.4-10.928zm-6.9 20.07c.8-2.385 1.7-5.664-.8-6.16-1.9-.398-3.3 1.788-4.1 3.874-1.1 2.285-1.9 6.06.1 6.557 2.2.596 3.9-1.887 4.8-4.272z" clip-rule="evenodd"></path><path fill="#101820" d="M66.3 16.194v13.214h-2.6v-5.663h-2.6v5.663h-2.4V16.194h2.4v5.167h2.6v-5.167zm2.7 0h2.7v13.313H69zm37.6 13.611c-3.8 0-4.1-2.781-4.1-4.371h2.5c0 3.279 3.1 2.881 3.1.695 0 0 .2-.993-1.5-1.987-1.9-1.092-4.1-1.987-4-4.769 0-.794.2-3.676 4-3.676s4.1 2.385 4 4.273h-2.7c0-2.882-2.9-2.484-2.9-.696 0 .994 1.9 2.087 3.4 2.98 1.4.895 2.3 2.186 2.4 3.677.1 1.39-.5 3.874-4.2 3.874zM87 27.322v2.086h-5.6V16.194h2.7v11.128zm-6.9 0v2.086h-5.6V16.095h2.6v11.227z"></path><path fill="#101820" fill-rule="evenodd" d="M52 16.095h-2.7v13.413H52v-4.372c.8 0 5.2.397 5.3-4.272.1-5.266-4.4-4.769-5.3-4.769zm0 6.855v-4.769c.5 0 2.8-.298 2.8 2.385 0 2.881-2.4 2.384-2.8 2.384z" clip-rule="evenodd"></path><path fill="#fff" fill-rule="evenodd" d="M54.8 20.466c0 2.98-2.4 2.484-2.8 2.484v-4.769c.6-.1 2.8-.397 2.8 2.285z" clip-rule="evenodd"></path><path fill="#101820" fill-rule="evenodd" d="M96.4 16.095h-2.7v13.413h2.7v-4.372c.7 0 5.2.397 5.3-4.272.1-5.266-4.4-4.769-5.3-4.769zm0 6.855v-4.769c.5 0 2.8-.298 2.8 2.385 0 2.881-2.4 2.384-2.8 2.384z" clip-rule="evenodd"></path><path fill="#fff" fill-rule="evenodd" d="M99.2 20.466c0 2.98-2.4 2.484-2.8 2.484v-4.769c.6-.1 2.8-.397 2.8 2.285z" clip-rule="evenodd"></path><path fill="#101820" d="M88.4 16.194h2.7v13.313h-2.7z"></path><path fill="#fff" fill-rule="evenodd" d="M105.5 47.788c.5-1.291-.2-5.861-4.8-7.451-8.5-2.881-15.1 1.59-18.4 10.929-2.3 6.557-4.5 14.406 2.6 17.088 4.5 1.69 12.1.994 15.5-4.67 2.8-4.57 4.2-11.624-1.4-13.61-4.9-1.789-8 .894-8 .894s2.1-6.955 5.4-6.955c2.1 0 1.7 2.98 1.7 2.98zM93 54.246c2.5.497 1.6 3.776.8 6.16-.9 2.385-2.6 4.868-4.8 4.272-2-.496-1.2-4.272-.1-6.557.8-2.086 2.2-4.272 4.1-3.875z" clip-rule="evenodd"></path><path fill="#e1251b" fill-rule="evenodd" d="M93.7 60.307c-.9 2.384-2.6 4.868-4.8 4.272-2-.497-1.2-4.272-.1-6.557.9-2.087 2.3-4.273 4.1-3.875 2.5.596 1.7 3.875.8 6.16z" clip-rule="evenodd"></path><path fill="#fff" fill-rule="evenodd" d="M78.2 47.788c.5-1.291-.2-5.96-4.8-7.451-8.8-2.881-15.1 1.788-18.4 10.929-2.4 6.458-4.5 14.406 2.6 17.088 4.5 1.69 12.1.994 15.5-4.67 2.8-4.57 4.1-11.623-1.4-13.61-4.9-1.789-8 .894-8 .894s2.1-6.955 5.4-6.955c2.1 0 1.7 2.98 1.7 2.98zm-12.6 6.458c2.5.497 1.6 3.776.8 6.16-.9 2.385-2.6 4.868-4.8 4.272-2-.497-1.1-4.272-.1-6.557 1-2.086 2.3-4.272 4.1-3.875z" clip-rule="evenodd"></path><path fill="#e1251b" fill-rule="evenodd" d="M66.4 60.307c-.9 2.384-2.6 4.868-4.8 4.272-2-.497-1.1-4.272-.1-6.557.9-2.087 2.2-4.273 4.1-3.875 2.5.596 1.7 3.875.8 6.16z" clip-rule="evenodd"></path><path fill="#101820" fill-rule="evenodd" d="M126.7 83.356c0-1.689-1.4-2.98-3-2.98s-3 1.291-3 2.98 1.3 2.98 3 2.98c1.6 0 3-1.29 3-2.98zm-.5 0c0 1.49-1.1 2.583-2.5 2.583s-2.5-1.092-2.5-2.583 1.1-2.583 2.5-2.583 2.5 1.192 2.5 2.583zm-3.7-1.788h1.4c.8 0 1.2.298 1.2.994 0 .596-.4.894-.9.993l1 1.59h-.6l-1-1.49h-.6v1.49h-.5zm1.2 1.59h-.6v-1.093h.7c.4 0 .8 0 .8.497 0 .596-.4.596-.9.596z" clip-rule="evenodd"></path>
</svg>
