<svg width="95" height="58" viewBox="0 0 95 58" fill="none" xmlns="http://www.w3.org/2000/svg">
<path fill-rule="evenodd" clip-rule="evenodd" d="M47.3365 0.574585C34.7145 0.574585 26.8257 6.88559 23.6702 19.5076C28.4034 13.1966 33.9256 10.83 40.2366 12.4077C43.8374 13.307 46.4109 15.9209 49.2596 18.8116C53.8999 23.5221 59.2713 28.9741 71.0028 28.9741C83.6248 28.9741 91.5135 22.6631 94.669 10.0411C89.9358 16.3521 84.4136 18.7187 78.1026 17.141C74.5019 16.2417 71.9284 13.6279 69.0797 10.7371C64.4393 6.0266 59.0679 0.574585 47.3365 0.574585ZM23.6702 28.9741C11.0482 28.9741 3.15941 35.2851 0.00390625 47.9072C4.73716 41.5961 10.2593 39.2295 16.5703 40.8073C20.1711 41.7083 22.7446 44.3204 25.5933 47.2112C30.2336 51.9217 35.605 57.3737 47.3365 57.3737C59.9585 57.3737 67.8473 51.0627 71.0028 38.4406C66.2695 44.7516 60.7474 47.1183 54.4364 45.5405C50.8356 44.6412 48.2621 42.0274 45.4134 39.1366C40.773 34.4261 35.4017 28.9741 23.6702 28.9741Z" fill="#38BDF8"/>
</svg>
